<?xml version="1.0" encoding="UTF-8" standalone="no"?>
<svg
   version="1.1"
   width="1189mm"
   height="841mm"
   viewBox="0 0 1189 841"
   id="svg5930"
   sodipodi:docname="bottom.svg"
   inkscape:version="1.2.1 (9c6d41e410, 2022-07-14)"
   xmlns:inkscape="http://www.inkscape.org/namespaces/inkscape"
   xmlns:sodipodi="http://sodipodi.sourceforge.net/DTD/sodipodi-0.dtd"
   xmlns="http://www.w3.org/2000/svg"
   xmlns:svg="http://www.w3.org/2000/svg">
  <defs
     id="defs5934" />
  <sodipodi:namedview
     id="namedview5932"
     pagecolor="#ffffff"
     bordercolor="#666666"
     borderopacity="1.0"
     inkscape:showpageshadow="2"
     inkscape:pageopacity="0.0"
     inkscape:pagecheckerboard="0"
     inkscape:deskcolor="#d1d1d1"
     inkscape:document-units="mm"
     showgrid="false"
     inkscape:zoom="0.26836627"
     inkscape:cx="2191.0354"
     inkscape:cy="1591.109"
     inkscape:window-width="2560"
     inkscape:window-height="1377"
     inkscape:window-x="1912"
     inkscape:window-y="-8"
     inkscape:window-maximized="1"
     inkscape:current-layer="svg5930" />
  <!-- Working space 20 10 1179 831 -->
  <!-- Title block 999 771 1179 831 -->
  <path
     id="1"
     d="M 26.5,416.3286 V 30.5"
     style="fill:none;stroke:#000000;stroke-width:0.15;stroke-linecap:butt;stroke-linejoin:miter;stroke-dasharray:0.2, 0.1, 0" />
  <path
     id="2"
     d="m 26.5,416.3286 h 15"
     style="fill:none;stroke:#000000;stroke-width:0.15;stroke-linecap:butt;stroke-linejoin:miter;stroke-dasharray:0.2, 0.1, 0" />
  <path
     id="3"
     d="m 26.5,30.5 h 412"
     style="fill:none;stroke:#000000;stroke-width:0.15;stroke-linecap:butt;stroke-linejoin:miter;stroke-dasharray:0.2, 0.1, 0" />
  <path
     id="4"
     d="M 438.5,416.3286 V 30.5"
     style="fill:none;stroke:#000000;stroke-width:0.15;stroke-linecap:butt;stroke-linejoin:miter;stroke-dasharray:0.2, 0.1, 0" />
  <path
     id="5"
     d="m 241.5,416.3286 h 197"
     style="fill:none;stroke:#000000;stroke-width:0.15;stroke-linecap:butt;stroke-linejoin:miter;stroke-dasharray:0.2, 0.1, 0" />
  <path
     id="6"
     d="m 241.5,396.3286 v 20"
     style="fill:none;stroke:#000000;stroke-width:0.15;stroke-linecap:butt;stroke-linejoin:miter;stroke-dasharray:0.2, 0.1, 0" />
  <path
     id="7"
     d="m 41.5,396.3286 h 200"
     style="fill:none;stroke:#000000;stroke-width:0.15;stroke-linecap:butt;stroke-linejoin:miter;stroke-dasharray:0.2, 0.1, 0" />
  <path
     id="8"
     d="m 41.5,416.3286 v -20"
     style="fill:none;stroke:#000000;stroke-width:0.15;stroke-linecap:butt;stroke-linejoin:miter;stroke-dasharray:0.2, 0.1, 0" />
  <path
     id="circle5749"
     style="fill:none;stroke:#000000;stroke-width:0.15;stroke-dasharray:0.2, 0.1, 0"
     transform="scale(1,-1)"
     d="m 143.6,-351.32901 a 2.0999999,2.0999999 0 0 1 -2.1,2.1 2.0999999,2.0999999 0 0 1 -2.1,-2.1 2.0999999,2.0999999 0 0 1 2.1,-2.1 2.0999999,2.0999999 0 0 1 2.1,2.1 z" />
  <path
     id="circle5751"
     style="fill:none;stroke:#000000;stroke-width:0.15;stroke-dasharray:0.2, 0.1, 0"
     transform="scale(1,-1)"
     d="m 193.6,-316.32898 a 2.0999999,2.0999999 0 0 1 -2.1,2.1 2.0999999,2.0999999 0 0 1 -2.1,-2.1 2.0999999,2.0999999 0 0 1 2.1,-2.1 2.0999999,2.0999999 0 0 1 2.1,2.1 z" />
  <path
     id="circle5753"
     style="fill:none;stroke:#000000;stroke-width:0.15;stroke-dasharray:0.2, 0.1, 0"
     transform="scale(1,-1)"
     d="m 253.6,-316.32898 a 2.0999999,2.0999999 0 0 1 -2.1,2.1 2.0999999,2.0999999 0 0 1 -2.1,-2.1 2.0999999,2.0999999 0 0 1 2.1,-2.1 2.0999999,2.0999999 0 0 1 2.1,2.1 z" />
  <path
     id="circle5755"
     style="fill:none;stroke:#000000;stroke-width:0.15;stroke-dasharray:0.2, 0.1, 0"
     transform="scale(1,-1)"
     d="m 363.6,-356.32901 a 2.0999999,2.0999999 0 0 1 -2.1,2.1 2.0999999,2.0999999 0 0 1 -2.1,-2.1 2.0999999,2.0999999 0 0 1 2.1,-2.1 2.0999999,2.0999999 0 0 1 2.1,2.1 z" />
  <path
     d="m 56.5,267.329 a 4,4 0 0 0 0,8"
     id="path5757"
     style="fill:none;stroke:#000000;stroke-width:0.15;stroke-linecap:butt;stroke-linejoin:miter;stroke-dasharray:0.2, 0.1, 0" />
  <path
     id="14"
     d="m 56.5,275.329 h 350"
     style="fill:none;stroke:#000000;stroke-width:0.15;stroke-linecap:butt;stroke-linejoin:miter;stroke-dasharray:0.2, 0.1, 0" />
  <path
     d="m 406.5,275.329 a 4,4 0 0 0 0,-8"
     id="path5760"
     style="fill:none;stroke:#000000;stroke-width:0.15;stroke-linecap:butt;stroke-linejoin:miter;stroke-dasharray:0.2, 0.1, 0" />
  <path
     id="16"
     d="m 56.5,267.329 h 350"
     style="fill:none;stroke:#000000;stroke-width:0.15;stroke-linecap:butt;stroke-linejoin:miter;stroke-dasharray:0.2, 0.1, 0" />
  <path
     d="m 56.5,249.329 a 4,4 0 0 0 0,8"
     id="path5763"
     style="fill:none;stroke:#000000;stroke-width:0.15;stroke-linecap:butt;stroke-linejoin:miter;stroke-dasharray:0.2, 0.1, 0" />
  <path
     id="18"
     d="m 56.5,257.329 h 350"
     style="fill:none;stroke:#000000;stroke-width:0.15;stroke-linecap:butt;stroke-linejoin:miter;stroke-dasharray:0.2, 0.1, 0" />
  <path
     d="m 406.5,257.329 a 4,4 0 0 0 0,-8"
     id="path5766"
     style="fill:none;stroke:#000000;stroke-width:0.15;stroke-linecap:butt;stroke-linejoin:miter;stroke-dasharray:0.2, 0.1, 0" />
  <path
     id="20"
     d="m 56.5,249.329 h 350"
     style="fill:none;stroke:#000000;stroke-width:0.15;stroke-linecap:butt;stroke-linejoin:miter;stroke-dasharray:0.2, 0.1, 0" />
  <path
     d="m 56.5,231.329 a 4,4 0 0 0 0,8"
     id="path5769"
     style="fill:none;stroke:#000000;stroke-width:0.15;stroke-linecap:butt;stroke-linejoin:miter;stroke-dasharray:0.2, 0.1, 0" />
  <path
     id="22"
     d="m 56.5,239.329 h 350"
     style="fill:none;stroke:#000000;stroke-width:0.15;stroke-linecap:butt;stroke-linejoin:miter;stroke-dasharray:0.2, 0.1, 0" />
  <path
     d="m 406.5,239.329 a 4,4 0 0 0 0,-8"
     id="path5772"
     style="fill:none;stroke:#000000;stroke-width:0.15;stroke-linecap:butt;stroke-linejoin:miter;stroke-dasharray:0.2, 0.1, 0" />
  <path
     id="24"
     d="m 56.5,231.329 h 350"
     style="fill:none;stroke:#000000;stroke-width:0.15;stroke-linecap:butt;stroke-linejoin:miter;stroke-dasharray:0.2, 0.1, 0" />
  <path
     id="circle5775"
     style="fill:none;stroke:#000000;stroke-width:0.15;stroke-dasharray:0.2, 0.1, 0"
     transform="scale(1,-1)"
     d="m 283.19201,-221.32899 a 2.0999999,2.0999999 0 0 1 -2.1,2.1 2.0999999,2.0999999 0 0 1 -2.1,-2.1 2.0999999,2.0999999 0 0 1 2.1,-2.1 2.0999999,2.0999999 0 0 1 2.1,2.1 z" />
  <path
     id="circle5777"
     style="fill:none;stroke:#000000;stroke-width:0.15;stroke-dasharray:0.2, 0.1, 0"
     transform="scale(1,-1)"
     d="m 43.6,-161.32901 a 2.0999999,2.0999999 0 0 1 -2.1,2.1 2.0999999,2.0999999 0 0 1 -2.1,-2.1 2.0999999,2.0999999 0 0 1 2.1,-2.1 2.0999999,2.0999999 0 0 1 2.1,2.1 z" />
  <path
     id="circle5779"
     style="fill:none;stroke:#000000;stroke-width:0.15;stroke-dasharray:0.2, 0.1, 0"
     transform="scale(1,-1)"
     d="m 141.6,-161.32901 a 2.0999999,2.0999999 0 0 1 -2.1,2.1 2.0999999,2.0999999 0 0 1 -2.1,-2.1 2.0999999,2.0999999 0 0 1 2.1,-2.1 2.0999999,2.0999999 0 0 1 2.1,2.1 z" />
  <path
     id="circle5781"
     style="fill:none;stroke:#000000;stroke-width:0.15;stroke-dasharray:0.2, 0.1, 0"
     transform="scale(1,-1)"
     d="m 193.192,-131.32901 a 2.0999999,2.0999999 0 0 1 -2.1,2.1 2.0999999,2.0999999 0 0 1 -2.1,-2.1 2.0999999,2.0999999 0 0 1 2.1,-2.1 2.0999999,2.0999999 0 0 1 2.1,2.1 z" />
  <path
     d="m 56.5,188.329 a 4,4 0 0 0 0,8"
     id="path5783"
     style="fill:none;stroke:#000000;stroke-width:0.15;stroke-linecap:butt;stroke-linejoin:miter;stroke-dasharray:0.2, 0.1, 0" />
  <path
     id="30"
     d="m 56.5,196.329 h 350"
     style="fill:none;stroke:#000000;stroke-width:0.15;stroke-linecap:butt;stroke-linejoin:miter;stroke-dasharray:0.2, 0.1, 0" />
  <path
     d="m 406.5,196.329 a 4,4 0 0 0 0,-8"
     id="path5786"
     style="fill:none;stroke:#000000;stroke-width:0.15;stroke-linecap:butt;stroke-linejoin:miter;stroke-dasharray:0.2, 0.1, 0" />
  <path
     id="32"
     d="m 56.5,188.329 h 350"
     style="fill:none;stroke:#000000;stroke-width:0.15;stroke-linecap:butt;stroke-linejoin:miter;stroke-dasharray:0.2, 0.1, 0" />
  <path
     d="m 56.5,170.329 a 4,4 0 0 0 0,8"
     id="path5789"
     style="fill:none;stroke:#000000;stroke-width:0.15;stroke-linecap:butt;stroke-linejoin:miter;stroke-dasharray:0.2, 0.1, 0" />
  <path
     id="34"
     d="m 56.5,178.329 h 350"
     style="fill:none;stroke:#000000;stroke-width:0.15;stroke-linecap:butt;stroke-linejoin:miter;stroke-dasharray:0.2, 0.1, 0" />
  <path
     d="m 406.5,178.329 a 4,4 0 0 0 0,-8"
     id="path5792"
     style="fill:none;stroke:#000000;stroke-width:0.15;stroke-linecap:butt;stroke-linejoin:miter;stroke-dasharray:0.2, 0.1, 0" />
  <path
     id="36"
     d="m 56.5,170.329 h 350"
     style="fill:none;stroke:#000000;stroke-width:0.15;stroke-linecap:butt;stroke-linejoin:miter;stroke-dasharray:0.2, 0.1, 0" />
  <path
     id="circle5795"
     style="fill:none;stroke:#000000;stroke-width:0.15;stroke-dasharray:0.2, 0.1, 0"
     transform="scale(1,-1)"
     d="m 283.19201,-131.32901 a 2.0999999,2.0999999 0 0 1 -2.1,2.1 2.0999999,2.0999999 0 0 1 -2.1,-2.1 2.0999999,2.0999999 0 0 1 2.1,-2.1 2.0999999,2.0999999 0 0 1 2.1,2.1 z" />
  <path
     id="circle5797"
     style="fill:none;stroke:#000000;stroke-width:0.15;stroke-dasharray:0.2, 0.1, 0"
     transform="scale(1,-1)"
     d="m 413.6,-134.32901 a 2.0999999,2.0999999 0 0 1 -2.1,2.1 2.0999999,2.0999999 0 0 1 -2.1,-2.1 2.0999999,2.0999999 0 0 1 2.1,-2.1 2.0999999,2.0999999 0 0 1 2.1,2.1 z" />
  <path
     d="m 56.5,97.329 a 4,4 0 0 0 0,8"
     id="path5799"
     style="fill:none;stroke:#000000;stroke-width:0.15;stroke-linecap:butt;stroke-linejoin:miter;stroke-dasharray:0.2, 0.1, 0" />
  <path
     id="40"
     d="m 56.5,105.329 h 350"
     style="fill:none;stroke:#000000;stroke-width:0.15;stroke-linecap:butt;stroke-linejoin:miter;stroke-dasharray:0.2, 0.1, 0" />
  <path
     d="m 406.5,105.329 a 4,4 0 0 0 0,-8"
     id="path5802"
     style="fill:none;stroke:#000000;stroke-width:0.15;stroke-linecap:butt;stroke-linejoin:miter;stroke-dasharray:0.2, 0.1, 0" />
  <path
     id="42"
     d="m 56.5,97.329 h 350"
     style="fill:none;stroke:#000000;stroke-width:0.15;stroke-linecap:butt;stroke-linejoin:miter;stroke-dasharray:0.2, 0.1, 0" />
  <path
     id="circle5805"
     style="fill:none;stroke:#000000;stroke-width:0.15;stroke-dasharray:0.2, 0.1, 0"
     transform="scale(1,-1)"
     d="m 318.6,-116.32901 a 2.0999999,2.0999999 0 0 1 -2.1,2.1 2.0999999,2.0999999 0 0 1 -2.1,-2.1 2.0999999,2.0999999 0 0 1 2.1,-2.1 2.0999999,2.0999999 0 0 1 2.1,2.1 z" />
  <path
     d="m 56.5,79.329 a 4,4 0 0 0 0,8"
     id="path5807"
     style="fill:none;stroke:#000000;stroke-width:0.15;stroke-linecap:butt;stroke-linejoin:miter;stroke-dasharray:0.2, 0.1, 0" />
  <path
     id="45"
     d="m 56.5,87.329 h 350"
     style="fill:none;stroke:#000000;stroke-width:0.15;stroke-linecap:butt;stroke-linejoin:miter;stroke-dasharray:0.2, 0.1, 0" />
  <path
     d="m 406.5,87.329 a 4,4 0 0 0 0,-8"
     id="path5810"
     style="fill:none;stroke:#000000;stroke-width:0.15;stroke-linecap:butt;stroke-linejoin:miter;stroke-dasharray:0.2, 0.1, 0" />
  <path
     id="47"
     d="m 56.5,79.329 h 350"
     style="fill:none;stroke:#000000;stroke-width:0.15;stroke-linecap:butt;stroke-linejoin:miter;stroke-dasharray:0.2, 0.1, 0" />
  <path
     d="m 56.5,61.329 a 4,4 0 0 0 0,8"
     id="path5813"
     style="fill:none;stroke:#000000;stroke-width:0.15;stroke-linecap:butt;stroke-linejoin:miter;stroke-dasharray:0.2, 0.1, 0" />
  <path
     id="49"
     d="m 56.5,69.329 h 350"
     style="fill:none;stroke:#000000;stroke-width:0.15;stroke-linecap:butt;stroke-linejoin:miter;stroke-dasharray:0.2, 0.1, 0" />
  <path
     d="m 406.5,69.329 a 4,4 0 0 0 0,-8"
     id="path5816"
     style="fill:none;stroke:#000000;stroke-width:0.15;stroke-linecap:butt;stroke-linejoin:miter;stroke-dasharray:0.2, 0.1, 0" />
  <path
     id="51"
     d="m 56.5,61.329 h 350"
     style="fill:none;stroke:#000000;stroke-width:0.15;stroke-linecap:butt;stroke-linejoin:miter;stroke-dasharray:0.2, 0.1, 0" />
  <path
     id="circle5819"
     style="fill:none;stroke:#000000;stroke-width:0.15;stroke-dasharray:0.2, 0.1, 0"
     transform="scale(1,-1)"
     d="m 318.6,-54.32901 a 2.0999999,2.0999999 0 0 1 -2.1,2.1 2.0999999,2.0999999 0 0 1 -2.1,-2.1 2.0999999,2.0999999 0 0 1 2.1,-2.1 2.0999999,2.0999999 0 0 1 2.1,2.1 z" />
  <path
     id="path5823"
     d="M 26.5,416.3286 V 30.5"
     style="fill:none;stroke:#000000;stroke-width:0.35;stroke-linecap:butt;stroke-linejoin:miter" />
  <path
     id="path5825"
     d="m 26.5,416.3286 h 15"
     style="fill:none;stroke:#000000;stroke-width:0.35;stroke-linecap:butt;stroke-linejoin:miter" />
  <path
     id="path5827"
     d="m 26.5,30.5 h 412"
     style="fill:none;stroke:#000000;stroke-width:0.35;stroke-linecap:butt;stroke-linejoin:miter" />
  <path
     id="path5829"
     d="M 438.5,416.3286 V 30.5"
     style="fill:none;stroke:#000000;stroke-width:0.35;stroke-linecap:butt;stroke-linejoin:miter" />
  <path
     id="path5831"
     d="m 241.5,416.3286 h 197"
     style="fill:none;stroke:#000000;stroke-width:0.35;stroke-linecap:butt;stroke-linejoin:miter" />
  <path
     id="path5833"
     d="m 241.5,396.3286 v 20"
     style="fill:none;stroke:#000000;stroke-width:0.35;stroke-linecap:butt;stroke-linejoin:miter" />
  <path
     id="path5835"
     d="m 41.5,396.3286 h 200"
     style="fill:none;stroke:#000000;stroke-width:0.35;stroke-linecap:butt;stroke-linejoin:miter" />
  <path
     id="path5837"
     d="m 41.5,416.3286 v -20"
     style="fill:none;stroke:#000000;stroke-width:0.35;stroke-linecap:butt;stroke-linejoin:miter" />
  <path
     id="circle5839"
     style="fill:none;stroke:#000000;stroke-width:0.35"
     transform="scale(1,-1)"
     d="m 143.6,-351.32901 a 2.0999999,2.0999999 0 0 1 -2.1,2.1 2.0999999,2.0999999 0 0 1 -2.1,-2.1 2.0999999,2.0999999 0 0 1 2.1,-2.1 2.0999999,2.0999999 0 0 1 2.1,2.1 z" />
  <path
     id="circle5841"
     style="fill:none;stroke:#000000;stroke-width:0.35"
     transform="scale(1,-1)"
     d="m 193.6,-316.32898 a 2.0999999,2.0999999 0 0 1 -2.1,2.1 2.0999999,2.0999999 0 0 1 -2.1,-2.1 2.0999999,2.0999999 0 0 1 2.1,-2.1 2.0999999,2.0999999 0 0 1 2.1,2.1 z" />
  <path
     id="circle5843"
     style="fill:none;stroke:#000000;stroke-width:0.35"
     transform="scale(1,-1)"
     d="m 253.6,-316.32898 a 2.0999999,2.0999999 0 0 1 -2.1,2.1 2.0999999,2.0999999 0 0 1 -2.1,-2.1 2.0999999,2.0999999 0 0 1 2.1,-2.1 2.0999999,2.0999999 0 0 1 2.1,2.1 z" />
  <path
     id="circle5845"
     style="fill:none;stroke:#000000;stroke-width:0.35"
     transform="scale(1,-1)"
     d="m 363.6,-356.32901 a 2.0999999,2.0999999 0 0 1 -2.1,2.1 2.0999999,2.0999999 0 0 1 -2.1,-2.1 2.0999999,2.0999999 0 0 1 2.1,-2.1 2.0999999,2.0999999 0 0 1 2.1,2.1 z" />
  <path
     d="m 56.5,267.329 a 4,4 0 0 0 0,8"
     id="path5847"
     style="fill:none;stroke:#000000;stroke-width:0.35;stroke-linecap:butt;stroke-linejoin:miter" />
  <path
     id="path5849"
     d="m 56.5,275.329 h 350"
     style="fill:none;stroke:#000000;stroke-width:0.35;stroke-linecap:butt;stroke-linejoin:miter" />
  <path
     d="m 406.5,275.329 a 4,4 0 0 0 0,-8"
     id="path5851"
     style="fill:none;stroke:#000000;stroke-width:0.35;stroke-linecap:butt;stroke-linejoin:miter" />
  <path
     id="path5853"
     d="m 56.5,267.329 h 350"
     style="fill:none;stroke:#000000;stroke-width:0.35;stroke-linecap:butt;stroke-linejoin:miter" />
  <path
     d="m 56.5,249.329 a 4,4 0 0 0 0,8"
     id="path5855"
     style="fill:none;stroke:#000000;stroke-width:0.35;stroke-linecap:butt;stroke-linejoin:miter" />
  <path
     id="path5857"
     d="m 56.5,257.329 h 350"
     style="fill:none;stroke:#000000;stroke-width:0.35;stroke-linecap:butt;stroke-linejoin:miter" />
  <path
     d="m 406.5,257.329 a 4,4 0 0 0 0,-8"
     id="path5859"
     style="fill:none;stroke:#000000;stroke-width:0.35;stroke-linecap:butt;stroke-linejoin:miter" />
  <path
     id="path5861"
     d="m 56.5,249.329 h 350"
     style="fill:none;stroke:#000000;stroke-width:0.35;stroke-linecap:butt;stroke-linejoin:miter" />
  <path
     d="m 56.5,231.329 a 4,4 0 0 0 0,8"
     id="path5863"
     style="fill:none;stroke:#000000;stroke-width:0.35;stroke-linecap:butt;stroke-linejoin:miter" />
  <path
     id="path5865"
     d="m 56.5,239.329 h 350"
     style="fill:none;stroke:#000000;stroke-width:0.35;stroke-linecap:butt;stroke-linejoin:miter" />
  <path
     d="m 406.5,239.329 a 4,4 0 1 0 0,-8"
     id="path5867"
     style="fill:none;stroke:#000000;stroke-width:0.35;stroke-linecap:butt;stroke-linejoin:miter" />
  <path
     id="path5869"
     d="m 56.5,231.329 h 350"
     style="fill:none;stroke:#000000;stroke-width:0.35;stroke-linecap:butt;stroke-linejoin:miter" />
  <path
     id="circle5871"
     style="fill:none;stroke:#000000;stroke-width:0.35"
     transform="scale(1,-1)"
     d="m 283.19201,-221.32899 a 2.0999999,2.0999999 0 0 1 -2.1,2.1 2.0999999,2.0999999 0 0 1 -2.1,-2.1 2.0999999,2.0999999 0 0 1 2.1,-2.1 2.0999999,2.0999999 0 0 1 2.1,2.1 z" />
  <path
     id="circle5873"
     style="fill:none;stroke:#000000;stroke-width:0.35"
     transform="scale(1,-1)"
     d="m 43.6,-161.32901 a 2.0999999,2.0999999 0 0 1 -2.1,2.1 2.0999999,2.0999999 0 0 1 -2.1,-2.1 2.0999999,2.0999999 0 0 1 2.1,-2.1 2.0999999,2.0999999 0 0 1 2.1,2.1 z" />
  <path
     id="circle5875"
     style="fill:none;stroke:#000000;stroke-width:0.35"
     transform="scale(1,-1)"
     d="m 141.6,-161.32901 a 2.0999999,2.0999999 0 0 1 -2.1,2.1 2.0999999,2.0999999 0 0 1 -2.1,-2.1 2.0999999,2.0999999 0 0 1 2.1,-2.1 2.0999999,2.0999999 0 0 1 2.1,2.1 z" />
  <path
     id="circle5877"
     style="fill:none;stroke:#000000;stroke-width:0.35"
     transform="scale(1,-1)"
     d="m 193.192,-131.32901 a 2.0999999,2.0999999 0 0 1 -2.1,2.1 2.0999999,2.0999999 0 0 1 -2.1,-2.1 2.0999999,2.0999999 0 0 1 2.1,-2.1 2.0999999,2.0999999 0 0 1 2.1,2.1 z" />
  <path
     d="m 56.5,188.329 a 4,4 0 0 0 0,8"
     id="path5879"
     style="fill:none;stroke:#000000;stroke-width:0.35;stroke-linecap:butt;stroke-linejoin:miter" />
  <path
     id="path5881"
     d="m 56.5,196.329 h 350"
     style="fill:none;stroke:#000000;stroke-width:0.35;stroke-linecap:butt;stroke-linejoin:miter" />
  <path
     d="m 406.5,196.329 a 4,4 0 0 0 0,-8"
     id="path5883"
     style="fill:none;stroke:#000000;stroke-width:0.35;stroke-linecap:butt;stroke-linejoin:miter" />
  <path
     id="path5885"
     d="m 56.5,188.329 h 350"
     style="fill:none;stroke:#000000;stroke-width:0.35;stroke-linecap:butt;stroke-linejoin:miter" />
  <path
     d="m 56.5,170.329 a 4,4 0 0 0 0,8"
     id="path5887"
     style="fill:none;stroke:#000000;stroke-width:0.35;stroke-linecap:butt;stroke-linejoin:miter" />
  <path
     id="path5889"
     d="m 56.5,178.329 h 350"
     style="fill:none;stroke:#000000;stroke-width:0.35;stroke-linecap:butt;stroke-linejoin:miter" />
  <path
     d="m 406.5,178.329 a 4,4 0 1 0 0,-8"
     id="path5891"
     style="fill:none;stroke:#000000;stroke-width:0.35;stroke-linecap:butt;stroke-linejoin:miter" />
  <path
     id="path5893"
     d="m 56.5,170.329 h 350"
     style="fill:none;stroke:#000000;stroke-width:0.35;stroke-linecap:butt;stroke-linejoin:miter" />
  <path
     id="circle5895"
     style="fill:none;stroke:#000000;stroke-width:0.35"
     transform="scale(1,-1)"
     d="m 283.19201,-131.32901 a 2.0999999,2.0999999 0 0 1 -2.1,2.1 2.0999999,2.0999999 0 0 1 -2.1,-2.1 2.0999999,2.0999999 0 0 1 2.1,-2.1 2.0999999,2.0999999 0 0 1 2.1,2.1 z" />
  <path
     id="circle5897"
     style="fill:none;stroke:#000000;stroke-width:0.35"
     transform="scale(1,-1)"
     d="m 413.6,-134.32901 a 2.0999999,2.0999999 0 0 1 -2.1,2.1 2.0999999,2.0999999 0 0 1 -2.1,-2.1 2.0999999,2.0999999 0 0 1 2.1,-2.1 2.0999999,2.0999999 0 0 1 2.1,2.1 z" />
  <path
     d="m 56.5,97.329 a 4,4 0 0 0 0,8"
     id="path5899"
     style="fill:none;stroke:#000000;stroke-width:0.35;stroke-linecap:butt;stroke-linejoin:miter" />
  <path
     id="path5901"
     d="m 56.5,105.329 h 350"
     style="fill:none;stroke:#000000;stroke-width:0.35;stroke-linecap:butt;stroke-linejoin:miter" />
  <path
     d="m 406.5,105.329 a 4,4 0 0 0 0,-8"
     id="path5903"
     style="fill:none;stroke:#000000;stroke-width:0.35;stroke-linecap:butt;stroke-linejoin:miter" />
  <path
     id="path5905"
     d="m 56.5,97.329 h 350"
     style="fill:none;stroke:#000000;stroke-width:0.35;stroke-linecap:butt;stroke-linejoin:miter" />
  <path
     id="circle5907"
     style="fill:none;stroke:#000000;stroke-width:0.35"
     transform="scale(1,-1)"
     d="m 318.6,-116.32901 a 2.0999999,2.0999999 0 0 1 -2.1,2.1 2.0999999,2.0999999 0 0 1 -2.1,-2.1 2.0999999,2.0999999 0 0 1 2.1,-2.1 2.0999999,2.0999999 0 0 1 2.1,2.1 z" />
  <path
     d="m 56.5,79.329 a 4,4 0 0 0 0,8"
     id="path5909"
     style="fill:none;stroke:#000000;stroke-width:0.35;stroke-linecap:butt;stroke-linejoin:miter" />
  <path
     id="path5911"
     d="m 56.5,87.329 h 350"
     style="fill:none;stroke:#000000;stroke-width:0.35;stroke-linecap:butt;stroke-linejoin:miter" />
  <path
     d="m 406.5,87.329 a 4,4 0 0 0 0,-8"
     id="path5913"
     style="fill:none;stroke:#000000;stroke-width:0.35;stroke-linecap:butt;stroke-linejoin:miter" />
  <path
     id="path5915"
     d="m 56.5,79.329 h 350"
     style="fill:none;stroke:#000000;stroke-width:0.35;stroke-linecap:butt;stroke-linejoin:miter" />
  <path
     d="m 56.5,61.329 a 4,4 0 0 0 0,8"
     id="path5917"
     style="fill:none;stroke:#000000;stroke-width:0.35;stroke-linecap:butt;stroke-linejoin:miter" />
  <path
     id="path5919"
     d="m 56.5,69.329 h 350"
     style="fill:none;stroke:#000000;stroke-width:0.35;stroke-linecap:butt;stroke-linejoin:miter" />
  <path
     d="m 406.5,69.329 a 4,4 0 1 0 0,-8"
     id="path5921"
     style="fill:none;stroke:#000000;stroke-width:0.35;stroke-linecap:butt;stroke-linejoin:miter" />
  <path
     id="path5923"
     d="m 56.5,61.329 h 350"
     style="fill:none;stroke:#000000;stroke-width:0.35;stroke-linecap:butt;stroke-linejoin:miter" />
  <path
     id="circle5925"
     style="fill:none;stroke:#000000;stroke-width:0.35"
     transform="scale(1,-1)"
     d="m 318.6,-54.32901 a 2.0999999,2.0999999 0 0 1 -2.1,2.1 2.0999999,2.0999999 0 0 1 -2.1,-2.1 2.0999999,2.0999999 0 0 1 2.1,-2.1 2.0999999,2.0999999 0 0 1 2.1,2.1 z" />
</svg>
