<?xml version="1.0" encoding="UTF-8" standalone="no"?>
<svg
   version="1.1"
   width="1189mm"
   height="841mm"
   viewBox="0 0 1189 841"
   id="svg4663"
   sodipodi:docname="side.svg"
   inkscape:version="1.2.1 (9c6d41e410, 2022-07-14)"
   xmlns:inkscape="http://www.inkscape.org/namespaces/inkscape"
   xmlns:sodipodi="http://sodipodi.sourceforge.net/DTD/sodipodi-0.dtd"
   xmlns="http://www.w3.org/2000/svg"
   xmlns:svg="http://www.w3.org/2000/svg">
  <defs
     id="defs4667" />
  <sodipodi:namedview
     id="namedview4665"
     pagecolor="#ffffff"
     bordercolor="#666666"
     borderopacity="1.0"
     inkscape:showpageshadow="2"
     inkscape:pageopacity="0.0"
     inkscape:pagecheckerboard="0"
     inkscape:deskcolor="#d1d1d1"
     inkscape:document-units="mm"
     showgrid="false"
     inkscape:zoom="0.26836627"
     inkscape:cx="2191.0354"
     inkscape:cy="1591.109"
     inkscape:window-width="2560"
     inkscape:window-height="1377"
     inkscape:window-x="1912"
     inkscape:window-y="-8"
     inkscape:window-maximized="1"
     inkscape:current-layer="svg4663" />
  <!-- Working space 20 10 1179 831 -->
  <!-- Title block 999 771 1179 831 -->
  <path
     id="1"
     d="M 110.3923,285 H 124"
     style="fill:none;stroke:#000000;stroke-width:0.35;stroke-linecap:butt;stroke-linejoin:miter" />
  <path
     d="m 110.3923,285 a 6,6 0 0 1 -5.19615,-9"
     id="path4518"
     style="fill:none;stroke:#000000;stroke-width:0.35;stroke-linecap:butt;stroke-linejoin:miter" />
  <path
     d="m 124,285 a 6,6 0 0 1 6,6"
     id="path4520"
     style="fill:none;stroke:#000000;stroke-width:0.35;stroke-linecap:butt;stroke-linejoin:miter" />
  <path
     id="4"
     d="M 178.8083,148.5 105.19615,276"
     style="fill:none;stroke:#000000;stroke-width:0.35;stroke-linecap:butt;stroke-linejoin:miter" />
  <path
     d="m 184.0045,145.5 a 6,6 0 0 0 -5.1962,3"
     id="path4523"
     style="fill:none;stroke:#000000;stroke-width:0.35;stroke-linecap:butt;stroke-linejoin:miter" />
  <path
     id="6"
     d="M 199.963,145.5 H 184.0045"
     style="fill:none;stroke:#000000;stroke-width:0.35;stroke-linecap:butt;stroke-linejoin:miter" />
  <path
     id="7"
     d="M 125.1962,275 199.963,145.5"
     style="fill:none;stroke:#000000;stroke-width:0.35;stroke-linecap:butt;stroke-linejoin:miter" />
  <path
     id="8"
     d="M 579,275 H 125.1962"
     style="fill:none;stroke:#000000;stroke-width:0.35;stroke-linecap:butt;stroke-linejoin:miter" />
  <path
     id="9"
     d="m 579,279 v -4"
     style="fill:none;stroke:#000000;stroke-width:0.35;stroke-linecap:butt;stroke-linejoin:miter" />
  <path
     d="m 573,285 a 6,6 0 0 0 6,-6"
     id="path4529"
     style="fill:none;stroke:#000000;stroke-width:0.35;stroke-linecap:butt;stroke-linejoin:miter" />
  <path
     id="11"
     d="m 555,285 h 18"
     style="fill:none;stroke:#000000;stroke-width:0.35;stroke-linecap:butt;stroke-linejoin:miter" />
  <path
     d="m 549,291 a 6,6 0 0 1 6,-6"
     id="path4532"
     style="fill:none;stroke:#000000;stroke-width:0.35;stroke-linecap:butt;stroke-linejoin:miter" />
  <path
     id="13"
     d="m 549,294 v -3"
     style="fill:none;stroke:#000000;stroke-width:0.35;stroke-linecap:butt;stroke-linejoin:miter" />
  <path
     d="m 543,300 a 6,6 0 0 0 6,-6"
     id="path4535"
     style="fill:none;stroke:#000000;stroke-width:0.35;stroke-linecap:butt;stroke-linejoin:miter" />
  <path
     id="15"
     d="m 505,300 h 38"
     style="fill:none;stroke:#000000;stroke-width:0.35;stroke-linecap:butt;stroke-linejoin:miter" />
  <path
     d="m 499,294 a 6,6 0 0 0 6,6"
     id="path4538"
     style="fill:none;stroke:#000000;stroke-width:0.35;stroke-linecap:butt;stroke-linejoin:miter" />
  <path
     id="17"
     d="m 499,291 v 3"
     style="fill:none;stroke:#000000;stroke-width:0.35;stroke-linecap:butt;stroke-linejoin:miter" />
  <path
     d="m 493,285 a 6,6 0 0 1 6,6"
     id="path4541"
     style="fill:none;stroke:#000000;stroke-width:0.35;stroke-linecap:butt;stroke-linejoin:miter" />
  <path
     id="19"
     d="M 186,285 H 493"
     style="fill:none;stroke:#000000;stroke-width:0.35;stroke-linecap:butt;stroke-linejoin:miter" />
  <path
     d="m 180,291 a 6,6 0 0 1 6,-6"
     id="path4544"
     style="fill:none;stroke:#000000;stroke-width:0.35;stroke-linecap:butt;stroke-linejoin:miter" />
  <path
     id="21"
     d="m 180,294 v -3"
     style="fill:none;stroke:#000000;stroke-width:0.35;stroke-linecap:butt;stroke-linejoin:miter" />
  <path
     d="m 174,300 a 6,6 0 0 0 6,-6"
     id="path4547"
     style="fill:none;stroke:#000000;stroke-width:0.35;stroke-linecap:butt;stroke-linejoin:miter" />
  <path
     id="23"
     d="m 136,300 h 38"
     style="fill:none;stroke:#000000;stroke-width:0.35;stroke-linecap:butt;stroke-linejoin:miter" />
  <path
     d="m 130,294 a 6,6 0 0 0 6,6"
     id="path4550"
     style="fill:none;stroke:#000000;stroke-width:0.35;stroke-linecap:butt;stroke-linejoin:miter" />
  <path
     id="25"
     d="m 130,291 v 3"
     style="fill:none;stroke:#000000;stroke-width:0.35;stroke-linecap:butt;stroke-linejoin:miter" />
  <path
     id="26"
     d="m 199.963,145.5 h 9.5"
     style="fill:none;stroke:#000000;stroke-width:0.35;stroke-linecap:butt;stroke-linejoin:miter" />
  <path
     id="27"
     d="M 529.5,145.5 H 209.463"
     style="fill:none;stroke:#000000;stroke-width:0.35;stroke-linecap:butt;stroke-linejoin:miter" />
  <path
     id="28"
     d="M 529.5,145.5 H 539"
     style="fill:none;stroke:#000000;stroke-width:0.35;stroke-linecap:butt;stroke-linejoin:miter" />
  <path
     id="29"
     d="M 573,145.5 H 539"
     style="fill:none;stroke:#000000;stroke-width:0.35;stroke-linecap:butt;stroke-linejoin:miter" />
  <path
     d="m 579,151.5 a 6,6 0 0 0 -6,-6"
     id="path4557"
     style="fill:none;stroke:#000000;stroke-width:0.35;stroke-linecap:butt;stroke-linejoin:miter" />
  <path
     id="31"
     d="m 579,155.5 v -4"
     style="fill:none;stroke:#000000;stroke-width:0.35;stroke-linecap:butt;stroke-linejoin:miter" />
  <path
     id="32"
     d="M 579,155.5 V 162"
     style="fill:none;stroke:#000000;stroke-width:0.35;stroke-linecap:butt;stroke-linejoin:miter" />
  <path
     id="33"
     d="M 579,262 V 162"
     style="fill:none;stroke:#000000;stroke-width:0.35;stroke-linecap:butt;stroke-linejoin:miter" />
  <path
     id="34"
     d="m 579,262 v 13"
     style="fill:none;stroke:#000000;stroke-width:0.35;stroke-linecap:butt;stroke-linejoin:miter" />
  <path
     id="35"
     d="m 209.463,145.5 -5.773,10"
     style="fill:none;stroke:#000000;stroke-width:0.35;stroke-linecap:butt;stroke-linejoin:miter" />
  <path
     id="36"
     d="m 529.5,155.5 v -10"
     style="fill:none;stroke:#000000;stroke-width:0.35;stroke-linecap:butt;stroke-linejoin:miter" />
  <path
     id="37"
     d="M 203.69,155.5 H 529.5"
     style="fill:none;stroke:#000000;stroke-width:0.35;stroke-linecap:butt;stroke-linejoin:miter" />
  <path
     id="38"
     d="m 539,145.5 v 10"
     style="fill:none;stroke:#000000;stroke-width:0.35;stroke-linecap:butt;stroke-linejoin:miter" />
  <path
     id="39"
     d="m 539,155.5 h 40"
     style="fill:none;stroke:#000000;stroke-width:0.35;stroke-linecap:butt;stroke-linejoin:miter" />
  <path
     id="40"
     d="M 579,162 H 539"
     style="fill:none;stroke:#000000;stroke-width:0.35;stroke-linecap:butt;stroke-linejoin:miter" />
  <path
     id="41"
     d="m 539,262 h 40"
     style="fill:none;stroke:#000000;stroke-width:0.35;stroke-linecap:butt;stroke-linejoin:miter" />
  <path
     id="42"
     d="M 539,162 V 262"
     style="fill:none;stroke:#000000;stroke-width:0.35;stroke-linecap:butt;stroke-linejoin:miter" />
  <path
     id="43"
     d="M 201.406,162 143.6714,262"
     style="fill:none;stroke:#000000;stroke-width:0.35;stroke-linecap:butt;stroke-linejoin:miter" />
  <path
     id="44"
     d="M 143.6714,262 H 529.5"
     style="fill:none;stroke:#000000;stroke-width:0.35;stroke-linecap:butt;stroke-linejoin:miter" />
  <path
     id="45"
     d="M 529.5,262 V 162"
     style="fill:none;stroke:#000000;stroke-width:0.35;stroke-linecap:butt;stroke-linejoin:miter" />
  <path
     id="46"
     d="M 529.5,162 H 201.406"
     style="fill:none;stroke:#000000;stroke-width:0.35;stroke-linecap:butt;stroke-linejoin:miter" />
  <path
     id="path4578"
     d="M 368.1913,328.25 H 381.799"
     style="fill:none;stroke:#000000;stroke-width:0.35;stroke-linecap:butt;stroke-linejoin:miter" />
  <path
     d="m 368.1913,328.25 a 6,6 0 0 0 -5.19615,9"
     id="path4580"
     style="fill:none;stroke:#000000;stroke-width:0.35;stroke-linecap:butt;stroke-linejoin:miter" />
  <path
     id="3"
     d="M 436.6073,464.75 362.99515,337.25"
     style="fill:none;stroke:#000000;stroke-width:0.35;stroke-linecap:butt;stroke-linejoin:miter" />
  <path
     d="m 441.8035,467.75 a 6,6 0 0 1 -5.1962,-3"
     id="path4583"
     style="fill:none;stroke:#000000;stroke-width:0.35;stroke-linecap:butt;stroke-linejoin:miter" />
  <path
     id="5"
     d="M 457.762,467.75 H 441.8035"
     style="fill:none;stroke:#000000;stroke-width:0.35;stroke-linecap:butt;stroke-linejoin:miter" />
  <path
     id="path4586"
     d="m 382.9952,338.25 74.7668,129.5"
     style="fill:none;stroke:#000000;stroke-width:0.35;stroke-linecap:butt;stroke-linejoin:miter" />
  <path
     id="path4588"
     d="M 836.799,338.25 H 382.9952"
     style="fill:none;stroke:#000000;stroke-width:0.35;stroke-linecap:butt;stroke-linejoin:miter" />
  <path
     id="path4590"
     d="m 836.799,334.25 v 4"
     style="fill:none;stroke:#000000;stroke-width:0.35;stroke-linecap:butt;stroke-linejoin:miter" />
  <path
     d="m 830.799,328.25 a 6,6 0 0 1 6,6"
     id="path4592"
     style="fill:none;stroke:#000000;stroke-width:0.35;stroke-linecap:butt;stroke-linejoin:miter" />
  <path
     id="10"
     d="m 812.799,328.25 h 18"
     style="fill:none;stroke:#000000;stroke-width:0.35;stroke-linecap:butt;stroke-linejoin:miter" />
  <path
     d="m 806.799,322.25 a 6,6 0 0 0 6,6"
     id="path4595"
     style="fill:none;stroke:#000000;stroke-width:0.35;stroke-linecap:butt;stroke-linejoin:miter" />
  <path
     id="12"
     d="m 806.799,319.25 v 3"
     style="fill:none;stroke:#000000;stroke-width:0.35;stroke-linecap:butt;stroke-linejoin:miter" />
  <path
     d="m 800.799,313.25 a 6,6 0 0 1 6,6"
     id="path4598"
     style="fill:none;stroke:#000000;stroke-width:0.35;stroke-linecap:butt;stroke-linejoin:miter" />
  <path
     id="14"
     d="m 762.799,313.25 h 38"
     style="fill:none;stroke:#000000;stroke-width:0.35;stroke-linecap:butt;stroke-linejoin:miter" />
  <path
     d="m 756.799,319.25 a 6,6 0 0 1 6,-6"
     id="path4601"
     style="fill:none;stroke:#000000;stroke-width:0.35;stroke-linecap:butt;stroke-linejoin:miter" />
  <path
     id="16"
     d="m 756.799,322.25 v -3"
     style="fill:none;stroke:#000000;stroke-width:0.35;stroke-linecap:butt;stroke-linejoin:miter" />
  <path
     d="m 750.799,328.25 a 6,6 0 0 0 6,-6"
     id="path4604"
     style="fill:none;stroke:#000000;stroke-width:0.35;stroke-linecap:butt;stroke-linejoin:miter" />
  <path
     id="18"
     d="m 443.799,328.25 h 307"
     style="fill:none;stroke:#000000;stroke-width:0.35;stroke-linecap:butt;stroke-linejoin:miter" />
  <path
     d="m 437.799,322.25 a 6,6 0 0 0 6,6"
     id="path4607"
     style="fill:none;stroke:#000000;stroke-width:0.35;stroke-linecap:butt;stroke-linejoin:miter" />
  <path
     id="20"
     d="m 437.799,319.25 v 3"
     style="fill:none;stroke:#000000;stroke-width:0.35;stroke-linecap:butt;stroke-linejoin:miter" />
  <path
     d="m 431.799,313.25 a 6,6 0 0 1 6,6"
     id="path4610"
     style="fill:none;stroke:#000000;stroke-width:0.35;stroke-linecap:butt;stroke-linejoin:miter" />
  <path
     id="22"
     d="m 393.799,313.25 h 38"
     style="fill:none;stroke:#000000;stroke-width:0.35;stroke-linecap:butt;stroke-linejoin:miter" />
  <path
     d="m 387.799,319.25 a 6,6 0 0 1 6,-6"
     id="path4613"
     style="fill:none;stroke:#000000;stroke-width:0.35;stroke-linecap:butt;stroke-linejoin:miter" />
  <path
     id="24"
     d="m 387.799,322.25 v -3"
     style="fill:none;stroke:#000000;stroke-width:0.35;stroke-linecap:butt;stroke-linejoin:miter" />
  <path
     d="m 381.799,328.25 a 6,6 0 0 0 6,-6"
     id="path4616"
     style="fill:none;stroke:#000000;stroke-width:0.35;stroke-linecap:butt;stroke-linejoin:miter" />
  <path
     id="path4618"
     d="m 830.799,467.75 h -34"
     style="fill:none;stroke:#000000;stroke-width:0.35;stroke-linecap:butt;stroke-linejoin:miter" />
  <path
     id="path4620"
     d="m 787.299,467.75 h 9.5"
     style="fill:none;stroke:#000000;stroke-width:0.35;stroke-linecap:butt;stroke-linejoin:miter" />
  <path
     id="path4622"
     d="M 787.299,467.75 H 467.262"
     style="fill:none;stroke:#000000;stroke-width:0.35;stroke-linecap:butt;stroke-linejoin:miter" />
  <path
     id="path4624"
     d="m 457.762,467.75 h 9.5"
     style="fill:none;stroke:#000000;stroke-width:0.35;stroke-linecap:butt;stroke-linejoin:miter" />
  <path
     id="30"
     d="m 836.799,351.25 v -13"
     style="fill:none;stroke:#000000;stroke-width:0.35;stroke-linecap:butt;stroke-linejoin:miter" />
  <path
     id="path4627"
     d="m 836.799,351.25 v 100"
     style="fill:none;stroke:#000000;stroke-width:0.35;stroke-linecap:butt;stroke-linejoin:miter" />
  <path
     id="path4629"
     d="m 836.799,457.75 v -6.5"
     style="fill:none;stroke:#000000;stroke-width:0.35;stroke-linecap:butt;stroke-linejoin:miter" />
  <path
     id="path4631"
     d="m 836.799,457.75 v 4"
     style="fill:none;stroke:#000000;stroke-width:0.35;stroke-linecap:butt;stroke-linejoin:miter" />
  <path
     d="m 836.799,461.75 a 6,6 0 0 1 -6,6"
     id="path4633"
     style="fill:none;stroke:#000000;stroke-width:0.35;stroke-linecap:butt;stroke-linejoin:miter" />
  <path
     id="path4635"
     d="m 796.799,457.75 h 40"
     style="fill:none;stroke:#000000;stroke-width:0.35;stroke-linecap:butt;stroke-linejoin:miter" />
  <path
     id="path4637"
     d="m 796.799,467.75 v -10"
     style="fill:none;stroke:#000000;stroke-width:0.35;stroke-linecap:butt;stroke-linejoin:miter" />
  <path
     id="path4639"
     d="m 787.299,457.75 v 10"
     style="fill:none;stroke:#000000;stroke-width:0.35;stroke-linecap:butt;stroke-linejoin:miter" />
  <path
     id="path4641"
     d="m 461.489,457.75 h 325.81"
     style="fill:none;stroke:#000000;stroke-width:0.35;stroke-linecap:butt;stroke-linejoin:miter" />
  <path
     id="path4643"
     d="m 467.262,467.75 -5.773,-10"
     style="fill:none;stroke:#000000;stroke-width:0.35;stroke-linecap:butt;stroke-linejoin:miter" />
  <path
     id="path4645"
     d="m 796.799,351.25 h 40"
     style="fill:none;stroke:#000000;stroke-width:0.35;stroke-linecap:butt;stroke-linejoin:miter" />
  <path
     id="path4647"
     d="m 796.799,451.25 v -100"
     style="fill:none;stroke:#000000;stroke-width:0.35;stroke-linecap:butt;stroke-linejoin:miter" />
  <path
     id="path4649"
     d="m 836.799,451.25 h -40"
     style="fill:none;stroke:#000000;stroke-width:0.35;stroke-linecap:butt;stroke-linejoin:miter" />
  <path
     id="path4651"
     d="m 459.205,451.25 -57.7346,-100"
     style="fill:none;stroke:#000000;stroke-width:0.35;stroke-linecap:butt;stroke-linejoin:miter" />
  <path
     id="path4653"
     d="M 401.4704,351.25 H 787.299"
     style="fill:none;stroke:#000000;stroke-width:0.35;stroke-linecap:butt;stroke-linejoin:miter" />
  <path
     id="path4655"
     d="m 787.299,351.25 v 100"
     style="fill:none;stroke:#000000;stroke-width:0.35;stroke-linecap:butt;stroke-linejoin:miter" />
  <path
     id="path4657"
     d="M 787.299,451.25 H 459.205"
     style="fill:none;stroke:#000000;stroke-width:0.35;stroke-linecap:butt;stroke-linejoin:miter" />
</svg>
