<?xml version="1.0" encoding="UTF-8" standalone="no"?>
<svg
   width="7mm"
   height="10mm"
   viewBox="0 0 7.0000001 10"
   version="1.1"
   id="svg44"
   inkscape:version="1.2.1 (9c6d41e410, 2022-07-14)"
   sodipodi:docname="MonkeyCodeMen-logo.svg"
   xmlns:inkscape="http://www.inkscape.org/namespaces/inkscape"
   xmlns:sodipodi="http://sodipodi.sourceforge.net/DTD/sodipodi-0.dtd"
   xmlns="http://www.w3.org/2000/svg"
   xmlns:svg="http://www.w3.org/2000/svg"
   xmlns:rdf="http://www.w3.org/1999/02/22-rdf-syntax-ns#"
   xmlns:cc="http://creativecommons.org/ns#"
   xmlns:dc="http://purl.org/dc/elements/1.1/">
  <defs
     id="defs38" />
  <sodipodi:namedview
     id="base"
     pagecolor="#ffffff"
     bordercolor="#666666"
     borderopacity="1.0"
     inkscape:pageopacity="0.0"
     inkscape:pageshadow="2"
     inkscape:zoom="3.959798"
     inkscape:cx="-23.738585"
     inkscape:cy="14.142136"
     inkscape:document-units="mm"
     inkscape:current-layer="layer1"
     inkscape:document-rotation="0"
     showgrid="false"
     fit-margin-top="0"
     fit-margin-left="0"
     fit-margin-right="0"
     fit-margin-bottom="0"
     inkscape:window-width="2560"
     inkscape:window-height="1377"
     inkscape:window-x="1672"
     inkscape:window-y="-8"
     inkscape:window-maximized="1"
     inkscape:showpageshadow="2"
     inkscape:pagecheckerboard="0"
     inkscape:deskcolor="#d1d1d1" />
  <metadata
     id="metadata41">
    <rdf:RDF>
      <cc:Work
         rdf:about="">
        <dc:format>image/svg+xml</dc:format>
        <dc:type
           rdf:resource="http://purl.org/dc/dcmitype/StillImage" />
      </cc:Work>
    </rdf:RDF>
  </metadata>
  <g
     inkscape:label="Ebene 1"
     inkscape:groupmode="layer"
     id="layer1"
     transform="translate(-51.174633,-124.05477)">
    <path
       style="fill:#000000;stroke-width:0.282223"
       d="m 55.090865,133.1545 c 0.01642,-0.0134 0.261555,-0.12754 0.544723,-0.25368 0.283167,-0.12615 0.577881,-0.26906 0.654925,-0.31757 0.451134,-0.2841 0.758026,-0.71175 0.906268,-1.26291 0.08402,-0.50616 0.02194,-1.15948 -0.341441,-1.56179 -0.01448,-0.0147 -0.03379,-0.0407 -0.0429,-0.0575 -0.02389,-0.0441 -0.240039,-0.26764 -0.259325,-0.2682 -0.02438,-6.7e-4 -0.02165,0.0612 0.0072,0.16433 0.03413,0.12193 0.05056,0.19618 0.06933,0.31374 0.0086,0.0535 0.02702,0.16426 0.0411,0.24597 0.03483,0.20267 0.0192,0.69746 -0.02647,0.84103 -0.172713,0.61168 -0.610361,0.92224 -1.150466,1.26556 -0.08521,0.0535 -0.165662,0.10648 -0.178774,0.11775 -0.01314,0.0113 -0.06196,0.0463 -0.108567,0.0777 -0.130094,0.0879 -0.416853,0.35506 -0.515235,0.48002 -0.249051,0.24778 -0.214387,0.41116 -0.323617,0.74149 0.294602,-0.28838 0.464549,-0.41375 0.723189,-0.52599 z m -0.949012,0.0871 c 0.05095,-0.13087 0.06212,-0.15511 0.149013,-0.32305 0.04354,-0.0842 0.224047,-0.35461 0.248105,-0.37174 0.0066,-0.005 0.04156,-0.0433 0.07779,-0.0859 0.03622,-0.0425 0.15375,-0.15822 0.261142,-0.25702 0.206885,-0.19032 0.305524,-0.3034 0.365779,-0.41934 0.08696,-0.16732 0.09153,-0.18842 0.100216,-0.46277 0.0077,-0.24475 0.0053,-0.27232 -0.02558,-0.29538 -0.04926,-0.0367 -0.06577,-0.0187 -0.06886,0.0748 -0.01946,0.21392 -0.209467,0.41676 -0.373546,0.54283 -0.05349,0.0397 -0.101513,0.0761 -0.106737,0.0809 -0.0052,0.005 -0.06031,0.0426 -0.122416,0.0838 -0.198096,0.14398 -0.407004,0.27636 -0.561188,0.46934 -0.14335,0.18665 -0.273324,0.57265 -0.281689,0.83653 -0.0025,0.0795 0.04499,0.47631 0.0721,0.60259 0.04245,0.19738 0.05815,0.25254 0.08518,0.29906 0.02488,0.0428 0.03334,0.047 0.05419,0.0269 l 0.02602,-0.38998 c 0.02115,-0.18618 0.05635,-0.2915 0.100488,-0.41162 z m -2.122058,-1.20419 c 0.05471,-0.0769 0.08827,-0.11613 0.163315,-0.1912 0.02468,-0.0247 0.05472,-0.0565 0.06673,-0.0707 0.04568,-0.0539 0.348263,-0.28601 0.462449,-0.35467 0.425286,-0.25265 0.874036,-0.39883 1.290441,-0.51416 0.261665,-0.0722 0.334705,-0.0962 0.335152,-0.11034 4.18e-4,-0.0122 -0.118609,-0.17932 -0.141032,-0.1981 -0.006,-0.005 -0.07413,-0.0939 -0.151396,-0.19755 -0.07727,-0.10364 -0.153665,-0.20499 -0.169772,-0.22523 -0.01612,-0.0202 -0.07852,-0.0997 -0.138697,-0.17656 -0.06018,-0.0769 -0.116858,-0.13997 -0.125969,-0.14024 -0.02627,-6.6e-4 -0.04498,0.0965 -0.07834,0.4075 -0.0091,0.0846 -0.02309,0.15355 -0.0311,0.15332 -0.01309,-4.1e-4 -0.07935,-0.075 -0.214537,-0.24163 -0.403387,-0.66509 -0.733548,-1.29719 -0.866957,-1.94871 l -0.09174,-0.0123 c -0.249659,-0.0335 -0.500396,-0.20028 -0.643786,-0.4283 -0.02976,-0.0473 -0.06231,-0.0836 -0.07236,-0.0807 -0.02079,0.006 -0.05844,0.1036 -0.156341,0.40529 -0.191553,0.61461 -0.29215,1.28035 -0.280261,1.95698 0.03851,0.4801 0.062,1.08683 0.22404,1.54862 0.0724,0.21736 0.144126,0.46442 0.229188,0.65875 0.02165,0.0491 0.0531,0.12336 0.06991,0.16505 0.01682,0.0417 0.03717,0.076 0.04518,0.0762 0.0925,-0.14711 0.168515,-0.32816 0.275867,-0.48129 z m 3.569729,-0.21356 c 0.03284,-0.0354 0.07594,-0.0798 0.09582,-0.0987 0.438279,-0.47564 0.60841,-0.91497 0.732284,-1.48548 0.01369,-0.0626 0.02553,-0.20868 0.02627,-0.32459 l 0.0015,-0.21076 -0.109712,-0.0265 c -0.06033,-0.0146 -0.159183,-0.0352 -0.219647,-0.0458 -0.266979,-0.0468 -0.439558,-0.10102 -0.624792,-0.19629 -0.407204,-0.20946 -0.590676,-0.60543 -0.419849,-0.90614 0.114514,-0.20157 0.310501,-0.31164 0.63349,-0.35578 0.09216,-0.0126 0.247215,-0.0118 0.506611,0.003 0.541374,0.03 0.72089,0.007 0.980858,-0.12298 0.193976,-0.0973 0.383832,-0.27658 0.257366,-0.24297 -0.249345,0.0663 -0.912547,0.0437 -1.366596,-0.0466 -0.414001,-0.0433 -0.892328,-0.0459 -1.2554,0.17763 -0.195847,0.13873 -0.316068,0.29313 -0.39668,0.4694 -0.01801,0.0397 -0.03374,0.0987 -0.06278,0.23611 -0.05122,0.24226 0.05806,0.57985 0.252724,0.78066 0.137806,0.14215 0.17,0.16726 0.419056,0.32675 0.34295,0.21961 0.410026,0.27422 0.52237,0.42528 0.214911,0.31636 0.282694,0.66897 0.199176,1.04094 -0.0529,0.17049 -0.108158,0.36043 -0.190845,0.50265 -0.10006,0.1708 -0.09098,0.21917 0.01886,0.10066 z M 53.494709,129.656 c 0.0045,-0.0114 0.002,-0.0329 -0.0049,-0.0476 -0.141887,-0.32844 -0.199021,-0.69378 -0.192662,-1.05423 0.004,-0.15497 0.03219,-0.36529 0.06073,-0.45647 0.0919,-0.31709 0.244314,-0.58996 0.499799,-0.82333 0.155785,-0.12046 0.350139,-0.2515 0.517817,-0.32796 0.107397,-0.0485 0.251842,-0.17185 0.295815,-0.25257 0.03011,-0.0553 0.03956,-0.1076 0.04383,-0.24253 0.0072,-0.2291 0.04976,-0.35067 0.155068,-0.4435 0.05868,-0.0517 0.105169,-0.0747 0.182502,-0.0901 0.115907,-0.0231 0.13811,-0.0604 0.04568,-0.0768 -0.03274,-0.006 -0.08839,-0.0161 -0.12365,-0.0228 -0.485025,-0.0925 -0.814966,-0.0674 -1.080483,0.0824 -0.343064,0.2623 -0.545001,0.55853 -0.720894,0.90841 -0.07221,0.1421 -0.09753,0.19394 -0.117251,0.24017 -0.0082,0.0191 -0.02876,0.0661 -0.04578,0.10442 -0.01702,0.0383 -0.04066,0.0991 -0.05254,0.13506 -0.01189,0.036 -0.0319,0.0944 -0.04448,0.12969 -0.06481,0.18203 -0.111543,0.67877 -0.07991,0.84926 0.02353,0.12698 0.06451,0.30098 0.08146,0.34604 0.0073,0.0196 0.02289,0.0637 0.03449,0.0979 0.03006,0.0888 0.0669,0.18128 0.08884,0.22288 0.01035,0.0197 0.0419,0.0841 0.07009,0.14304 0.02817,0.0589 0.08405,0.15972 0.124193,0.2239 0.04015,0.0641 0.101888,0.17014 0.137219,0.23551 0.06305,0.11665 0.10898,0.1604 0.125122,0.11918 z m 4.188112,-1.79143 c 0.134253,-0.0822 0.290102,-0.17299 0.356658,-0.31516 0.01199,-0.0285 0.0052,-0.0306 -0.06975,-0.0221 -0.05615,0.007 -0.08286,0.003 -0.08243,-0.0101 4.18e-4,-0.0107 -0.01498,-0.0201 -0.03404,-0.0206 -0.02429,-6.7e-4 -0.05339,0.0324 -0.09693,0.11016 -0.03424,0.0611 -0.09527,0.14434 -0.135632,0.18488 -0.09937,0.0998 -0.06782,0.13682 0.06215,0.0729 z m -5.297626,-0.39174 c 0.0056,-0.013 -0.007,-0.0435 -0.02811,-0.0678 -0.02115,-0.0244 -0.04812,-0.06 -0.0599,-0.0792 -0.03369,-0.0549 -0.125849,-0.2589 -0.125267,-0.27734 2.09e-4,-0.009 -0.0064,-0.0306 -0.01463,-0.0477 -0.04284,-0.0876 -0.06243,-0.18226 -0.09445,-0.45615 -0.0076,-0.0657 -0.01891,-0.0901 -0.04399,-0.0954 -0.163298,-0.0676 -0.123749,-0.22654 -0.06674,-0.31212 0.07952,-0.11807 0.0827,-0.14157 0.03011,-0.22261 -0.10124,-0.15594 -0.12697,-0.26184 -0.09396,-0.3867 0.02503,-0.0947 0.05068,-0.14134 0.07729,-0.14056 0.007,1.4e-4 0.03139,0.0346 0.05416,0.0765 0.02279,0.0419 0.12243,0.15776 0.221474,0.25757 0.155119,0.24179 0.43402,0.3031 0.616859,0.44566 l 0.03986,0.0316 -0.05389,0.0777 c -0.166951,0.25126 -0.337028,0.55078 -0.207581,0.83854 0.032,0.0679 0.05859,0.0636 0.103185,-0.0168 0.02274,-0.041 0.07225,-0.0974 0.110041,-0.1254 0.205859,-0.15246 0.28538,-0.23717 0.320228,-0.34113 0.02528,-0.0755 0.02995,-0.11503 0.01767,-0.1493 -0.0092,-0.0257 -0.02115,-0.0775 -0.02647,-0.11519 -0.0053,-0.0377 -0.03323,-0.1218 -0.06205,-0.18686 -0.08997,-0.20332 -0.117732,-0.31991 -0.108372,-0.45507 0.0093,-0.13515 -4.98e-4,-0.16714 -0.05243,-0.16864 -0.254953,-0.0991 -0.510706,-0.26129 -0.714396,-0.43383 -0.137563,-0.11797 -0.270588,-0.25292 -0.345347,-0.35034 -0.03235,-0.0421 -0.06432,-0.0765 -0.07106,-0.0764 -0.0068,1.3e-4 -0.03926,0.0329 -0.07222,0.0728 -0.05462,0.0662 -0.07448,0.10774 -0.126357,0.26456 -0.0095,0.0288 -0.03075,0.17535 -0.04712,0.32563 -0.03051,0.27992 -0.02454,0.63982 0.01379,0.82621 0.02941,0.14312 0.101105,0.3807 0.14236,0.47165 0.022,0.0485 0.03981,0.0948 0.03956,0.10279 -4.22e-4,0.0165 0.16203,0.28887 0.196608,0.32946 0.01235,0.0145 0.05437,0.0648 0.09343,0.11182 0.08558,0.10307 0.286999,0.29445 0.31062,0.29513 0.0093,1.4e-4 0.0216,-0.0101 0.02728,-0.0231 z m 5.683906,-0.0625 c 0.08368,-0.0796 0.101721,-0.11881 0.105199,-0.22869 0.0025,-0.0714 -0.0087,-0.11901 -0.04091,-0.17846 -0.04195,-0.0773 -0.04255,-0.0831 -0.01204,-0.12479 0.03011,-0.0411 0.03,-0.0459 -0.0015,-0.0813 -0.06094,-0.0685 -0.135771,-0.0963 -0.267194,-0.0994 -0.109836,-0.003 -0.133159,0.003 -0.192418,0.0461 -0.08427,0.0613 -0.08848,0.0821 -0.01851,0.0916 0.122088,0.0165 0.152132,0.11345 0.06209,0.20018 -0.04614,0.0444 -0.06622,0.0508 -0.155875,0.0492 -0.05661,-6.7e-4 -0.11917,-0.0107 -0.139025,-0.0217 -0.01985,-0.0109 -0.0415,-0.015 -0.04807,-0.009 -0.02438,0.022 -0.01358,0.0979 0.021,0.14747 0.04782,0.0685 0.12981,0.10958 0.262546,0.13147 0.192354,0.0317 0.228823,0.0439 0.262769,0.0879 0.04518,0.0585 0.09254,0.0554 0.161946,-0.0106 z m -2.610825,-0.52816 c 0.06004,-0.0541 0.06717,-0.081 0.03867,-0.1459 -0.129516,-0.17021 -0.421222,-0.0564 -0.537004,0.0465 -0.07021,0.0639 -0.09534,0.11602 -0.0564,0.11716 0.01014,4e-4 0.01861,-0.007 0.01891,-0.0154 2.09e-4,-0.009 0.02702,-0.0239 0.05941,-0.0337 0.04767,-0.0144 0.06732,-0.0121 0.102934,0.0117 0.04926,0.033 0.07114,0.0215 0.0823,-0.0432 0.0053,-0.0307 0.0208,-0.0453 0.05168,-0.0485 0.05314,-0.005 0.07436,0.0239 0.07231,0.10057 -0.0015,0.0521 0.0034,0.0574 0.0551,0.0589 0.03806,6.7e-4 0.07483,-0.0147 0.112079,-0.0483 z m 2.038152,-0.15968 c 0.09792,-0.0252 0.106109,-0.0569 0.01877,-0.0725 -0.176047,-0.033 -0.359032,-0.0816 -0.517877,-0.12063 -0.275081,-0.0613 -0.55262,-0.21116 -0.707549,-0.36512 -0.07548,-0.0759 -0.176788,-0.17034 -0.225116,-0.20987 -0.06742,-0.058 -0.240925,-0.20556 -0.324961,-0.18648 -0.02786,0.009 -0.02667,0.0153 0.011,0.0525 0.11253,0.13571 0.200954,0.25273 0.287163,0.3867 0.103457,0.16129 0.229431,0.29067 0.342575,0.35185 0.313273,0.16532 0.775622,0.23229 1.115974,0.16362 z M 53.413361,126.177 c 0.0223,-0.0255 0.0407,-0.0519 0.04095,-0.0587 9.75e-4,-0.0295 0.267118,-0.25193 0.378527,-0.31635 0.255127,-0.14751 0.575265,-0.1981 0.906641,-0.14327 0.109481,0.0181 0.148047,0.0181 0.193468,-1.3e-4 0.154894,-0.0621 0.209104,-0.0734 0.335355,-0.0698 0.08889,0.003 0.154745,0.0145 0.194708,0.0351 0.03319,0.0172 0.08337,0.0432 0.111488,0.0578 0.149899,0.078 -0.0025,-0.0927 -0.183621,-0.20553 -0.0646,-0.0403 -0.137881,-0.0824 -0.162861,-0.0937 -0.02497,-0.0112 -0.07635,-0.0343 -0.114155,-0.0513 -0.134184,-0.0489 -0.284371,-0.0732 -0.404935,-0.0797 l -0.218195,-0.0113 -0.02324,-0.0888 c -0.05889,-0.22487 -0.113358,-0.3851 -0.178475,-0.52509 -0.110269,-0.19658 -0.248284,-0.52269 -0.491528,-0.54819 l -0.06644,-0.005 -0.0035,0.12328 c -0.002,0.0678 0.003,0.28603 0.01024,0.48496 0.0074,0.19893 0.01235,0.42795 0.0109,0.50891 l -0.0025,0.14722 c -0.09145,0.0948 -0.174221,0.0818 -0.274911,0.11873 -0.06044,0.0227 -0.160706,0.0473 -0.261237,0.0643 -0.08416,0.0141 -0.101199,0.0722 -0.06826,0.23249 0.02941,0.14304 0.106109,0.34178 0.132198,0.34254 0.0084,1.4e-4 0.01483,0.0109 0.01443,0.0238 -4.18e-4,0.0128 0.01841,0.0417 0.04181,0.064 l 0.04255,0.0407 z m 1.401328,-1.12481 c 0.0015,-0.0483 -0.138374,-0.32743 -0.229958,-0.45884 -0.140294,-0.20128 -0.484198,-0.53648 -0.552465,-0.53846 -0.04798,-0.001 -0.0423,0.0201 0.0213,0.081 0.30731,0.33506 0.470186,0.62062 0.48095,1.01301 0.04086,0.0321 0.275458,-0.0607 0.280149,-0.0968 z"
       id="path4768"
       inkscape:connector-curvature="0"
       sodipodi:nodetypes="csscccsscscccsccccccsssssccsccsssccccscccscssssssccscccccccccsccscsssssssscccssscccsccccccsssssscccsccccsccsccccsssssccscscsccscsccccccscsccccccsccssscscsscsscccssssscccssssccsssscscsscccccccccccsssssccsscccsccccscccssssccccssccc" />
  </g>
</svg>
