%TF.GenerationSoftware,KiCad,Pcbnew,(6.0.9)*%
%TF.CreationDate,2023-03-19T20:52:38+01:00*%
%TF.ProjectId,PI-keys,50492d6b-6579-4732-9e6b-696361645f70,rev?*%
%TF.SameCoordinates,Original*%
%TF.FileFunction,Legend,Top*%
%TF.FilePolarity,Positive*%
%FSLAX46Y46*%
G04 Gerber Fmt 4.6, Leading zero omitted, Abs format (unit mm)*
G04 Created by KiCad (PCBNEW (6.0.9)) date 2023-03-19 20:52:38*
%MOMM*%
%LPD*%
G01*
G04 APERTURE LIST*
%ADD10C,0.150000*%
%ADD11C,0.120000*%
G04 APERTURE END LIST*
D10*
%TO.C,SW12*%
X134270476Y-115744761D02*
X134413333Y-115792380D01*
X134651428Y-115792380D01*
X134746666Y-115744761D01*
X134794285Y-115697142D01*
X134841904Y-115601904D01*
X134841904Y-115506666D01*
X134794285Y-115411428D01*
X134746666Y-115363809D01*
X134651428Y-115316190D01*
X134460952Y-115268571D01*
X134365714Y-115220952D01*
X134318095Y-115173333D01*
X134270476Y-115078095D01*
X134270476Y-114982857D01*
X134318095Y-114887619D01*
X134365714Y-114840000D01*
X134460952Y-114792380D01*
X134699047Y-114792380D01*
X134841904Y-114840000D01*
X135175238Y-114792380D02*
X135413333Y-115792380D01*
X135603809Y-115078095D01*
X135794285Y-115792380D01*
X136032380Y-114792380D01*
X136937142Y-115792380D02*
X136365714Y-115792380D01*
X136651428Y-115792380D02*
X136651428Y-114792380D01*
X136556190Y-114935238D01*
X136460952Y-115030476D01*
X136365714Y-115078095D01*
X137318095Y-114887619D02*
X137365714Y-114840000D01*
X137460952Y-114792380D01*
X137699047Y-114792380D01*
X137794285Y-114840000D01*
X137841904Y-114887619D01*
X137889523Y-114982857D01*
X137889523Y-115078095D01*
X137841904Y-115220952D01*
X137270476Y-115792380D01*
X137889523Y-115792380D01*
%TO.C,SW13*%
X154270476Y-115744761D02*
X154413333Y-115792380D01*
X154651428Y-115792380D01*
X154746666Y-115744761D01*
X154794285Y-115697142D01*
X154841904Y-115601904D01*
X154841904Y-115506666D01*
X154794285Y-115411428D01*
X154746666Y-115363809D01*
X154651428Y-115316190D01*
X154460952Y-115268571D01*
X154365714Y-115220952D01*
X154318095Y-115173333D01*
X154270476Y-115078095D01*
X154270476Y-114982857D01*
X154318095Y-114887619D01*
X154365714Y-114840000D01*
X154460952Y-114792380D01*
X154699047Y-114792380D01*
X154841904Y-114840000D01*
X155175238Y-114792380D02*
X155413333Y-115792380D01*
X155603809Y-115078095D01*
X155794285Y-115792380D01*
X156032380Y-114792380D01*
X156937142Y-115792380D02*
X156365714Y-115792380D01*
X156651428Y-115792380D02*
X156651428Y-114792380D01*
X156556190Y-114935238D01*
X156460952Y-115030476D01*
X156365714Y-115078095D01*
X157270476Y-114792380D02*
X157889523Y-114792380D01*
X157556190Y-115173333D01*
X157699047Y-115173333D01*
X157794285Y-115220952D01*
X157841904Y-115268571D01*
X157889523Y-115363809D01*
X157889523Y-115601904D01*
X157841904Y-115697142D01*
X157794285Y-115744761D01*
X157699047Y-115792380D01*
X157413333Y-115792380D01*
X157318095Y-115744761D01*
X157270476Y-115697142D01*
%TO.C,REF\u002A\u002A*%
X219906666Y-99512380D02*
X219573333Y-99036190D01*
X219335238Y-99512380D02*
X219335238Y-98512380D01*
X219716190Y-98512380D01*
X219811428Y-98560000D01*
X219859047Y-98607619D01*
X219906666Y-98702857D01*
X219906666Y-98845714D01*
X219859047Y-98940952D01*
X219811428Y-98988571D01*
X219716190Y-99036190D01*
X219335238Y-99036190D01*
X220335238Y-98988571D02*
X220668571Y-98988571D01*
X220811428Y-99512380D02*
X220335238Y-99512380D01*
X220335238Y-98512380D01*
X220811428Y-98512380D01*
X221573333Y-98988571D02*
X221240000Y-98988571D01*
X221240000Y-99512380D02*
X221240000Y-98512380D01*
X221716190Y-98512380D01*
X222240000Y-98512380D02*
X222240000Y-98750476D01*
X222001904Y-98655238D02*
X222240000Y-98750476D01*
X222478095Y-98655238D01*
X222097142Y-98940952D02*
X222240000Y-98750476D01*
X222382857Y-98940952D01*
X223001904Y-98512380D02*
X223001904Y-98750476D01*
X222763809Y-98655238D02*
X223001904Y-98750476D01*
X223240000Y-98655238D01*
X222859047Y-98940952D02*
X223001904Y-98750476D01*
X223144761Y-98940952D01*
X219866666Y-140052380D02*
X219533333Y-139576190D01*
X219295238Y-140052380D02*
X219295238Y-139052380D01*
X219676190Y-139052380D01*
X219771428Y-139100000D01*
X219819047Y-139147619D01*
X219866666Y-139242857D01*
X219866666Y-139385714D01*
X219819047Y-139480952D01*
X219771428Y-139528571D01*
X219676190Y-139576190D01*
X219295238Y-139576190D01*
X220295238Y-139528571D02*
X220628571Y-139528571D01*
X220771428Y-140052380D02*
X220295238Y-140052380D01*
X220295238Y-139052380D01*
X220771428Y-139052380D01*
X221533333Y-139528571D02*
X221200000Y-139528571D01*
X221200000Y-140052380D02*
X221200000Y-139052380D01*
X221676190Y-139052380D01*
X222200000Y-139052380D02*
X222200000Y-139290476D01*
X221961904Y-139195238D02*
X222200000Y-139290476D01*
X222438095Y-139195238D01*
X222057142Y-139480952D02*
X222200000Y-139290476D01*
X222342857Y-139480952D01*
X222961904Y-139052380D02*
X222961904Y-139290476D01*
X222723809Y-139195238D02*
X222961904Y-139290476D01*
X223200000Y-139195238D01*
X222819047Y-139480952D02*
X222961904Y-139290476D01*
X223104761Y-139480952D01*
X49866666Y-139552380D02*
X49533333Y-139076190D01*
X49295238Y-139552380D02*
X49295238Y-138552380D01*
X49676190Y-138552380D01*
X49771428Y-138600000D01*
X49819047Y-138647619D01*
X49866666Y-138742857D01*
X49866666Y-138885714D01*
X49819047Y-138980952D01*
X49771428Y-139028571D01*
X49676190Y-139076190D01*
X49295238Y-139076190D01*
X50295238Y-139028571D02*
X50628571Y-139028571D01*
X50771428Y-139552380D02*
X50295238Y-139552380D01*
X50295238Y-138552380D01*
X50771428Y-138552380D01*
X51533333Y-139028571D02*
X51200000Y-139028571D01*
X51200000Y-139552380D02*
X51200000Y-138552380D01*
X51676190Y-138552380D01*
X52200000Y-138552380D02*
X52200000Y-138790476D01*
X51961904Y-138695238D02*
X52200000Y-138790476D01*
X52438095Y-138695238D01*
X52057142Y-138980952D02*
X52200000Y-138790476D01*
X52342857Y-138980952D01*
X52961904Y-138552380D02*
X52961904Y-138790476D01*
X52723809Y-138695238D02*
X52961904Y-138790476D01*
X53200000Y-138695238D01*
X52819047Y-138980952D02*
X52961904Y-138790476D01*
X53104761Y-138980952D01*
X49886666Y-99582380D02*
X49553333Y-99106190D01*
X49315238Y-99582380D02*
X49315238Y-98582380D01*
X49696190Y-98582380D01*
X49791428Y-98630000D01*
X49839047Y-98677619D01*
X49886666Y-98772857D01*
X49886666Y-98915714D01*
X49839047Y-99010952D01*
X49791428Y-99058571D01*
X49696190Y-99106190D01*
X49315238Y-99106190D01*
X50315238Y-99058571D02*
X50648571Y-99058571D01*
X50791428Y-99582380D02*
X50315238Y-99582380D01*
X50315238Y-98582380D01*
X50791428Y-98582380D01*
X51553333Y-99058571D02*
X51220000Y-99058571D01*
X51220000Y-99582380D02*
X51220000Y-98582380D01*
X51696190Y-98582380D01*
X52220000Y-98582380D02*
X52220000Y-98820476D01*
X51981904Y-98725238D02*
X52220000Y-98820476D01*
X52458095Y-98725238D01*
X52077142Y-99010952D02*
X52220000Y-98820476D01*
X52362857Y-99010952D01*
X52981904Y-98582380D02*
X52981904Y-98820476D01*
X52743809Y-98725238D02*
X52981904Y-98820476D01*
X53220000Y-98725238D01*
X52839047Y-99010952D02*
X52981904Y-98820476D01*
X53124761Y-99010952D01*
%TO.C,SW16*%
X214270476Y-115744761D02*
X214413333Y-115792380D01*
X214651428Y-115792380D01*
X214746666Y-115744761D01*
X214794285Y-115697142D01*
X214841904Y-115601904D01*
X214841904Y-115506666D01*
X214794285Y-115411428D01*
X214746666Y-115363809D01*
X214651428Y-115316190D01*
X214460952Y-115268571D01*
X214365714Y-115220952D01*
X214318095Y-115173333D01*
X214270476Y-115078095D01*
X214270476Y-114982857D01*
X214318095Y-114887619D01*
X214365714Y-114840000D01*
X214460952Y-114792380D01*
X214699047Y-114792380D01*
X214841904Y-114840000D01*
X215175238Y-114792380D02*
X215413333Y-115792380D01*
X215603809Y-115078095D01*
X215794285Y-115792380D01*
X216032380Y-114792380D01*
X216937142Y-115792380D02*
X216365714Y-115792380D01*
X216651428Y-115792380D02*
X216651428Y-114792380D01*
X216556190Y-114935238D01*
X216460952Y-115030476D01*
X216365714Y-115078095D01*
X217794285Y-114792380D02*
X217603809Y-114792380D01*
X217508571Y-114840000D01*
X217460952Y-114887619D01*
X217365714Y-115030476D01*
X217318095Y-115220952D01*
X217318095Y-115601904D01*
X217365714Y-115697142D01*
X217413333Y-115744761D01*
X217508571Y-115792380D01*
X217699047Y-115792380D01*
X217794285Y-115744761D01*
X217841904Y-115697142D01*
X217889523Y-115601904D01*
X217889523Y-115363809D01*
X217841904Y-115268571D01*
X217794285Y-115220952D01*
X217699047Y-115173333D01*
X217508571Y-115173333D01*
X217413333Y-115220952D01*
X217365714Y-115268571D01*
X217318095Y-115363809D01*
%TO.C,SW15*%
X194270476Y-115744761D02*
X194413333Y-115792380D01*
X194651428Y-115792380D01*
X194746666Y-115744761D01*
X194794285Y-115697142D01*
X194841904Y-115601904D01*
X194841904Y-115506666D01*
X194794285Y-115411428D01*
X194746666Y-115363809D01*
X194651428Y-115316190D01*
X194460952Y-115268571D01*
X194365714Y-115220952D01*
X194318095Y-115173333D01*
X194270476Y-115078095D01*
X194270476Y-114982857D01*
X194318095Y-114887619D01*
X194365714Y-114840000D01*
X194460952Y-114792380D01*
X194699047Y-114792380D01*
X194841904Y-114840000D01*
X195175238Y-114792380D02*
X195413333Y-115792380D01*
X195603809Y-115078095D01*
X195794285Y-115792380D01*
X196032380Y-114792380D01*
X196937142Y-115792380D02*
X196365714Y-115792380D01*
X196651428Y-115792380D02*
X196651428Y-114792380D01*
X196556190Y-114935238D01*
X196460952Y-115030476D01*
X196365714Y-115078095D01*
X197841904Y-114792380D02*
X197365714Y-114792380D01*
X197318095Y-115268571D01*
X197365714Y-115220952D01*
X197460952Y-115173333D01*
X197699047Y-115173333D01*
X197794285Y-115220952D01*
X197841904Y-115268571D01*
X197889523Y-115363809D01*
X197889523Y-115601904D01*
X197841904Y-115697142D01*
X197794285Y-115744761D01*
X197699047Y-115792380D01*
X197460952Y-115792380D01*
X197365714Y-115744761D01*
X197318095Y-115697142D01*
%TO.C,SW14*%
X174270476Y-115744761D02*
X174413333Y-115792380D01*
X174651428Y-115792380D01*
X174746666Y-115744761D01*
X174794285Y-115697142D01*
X174841904Y-115601904D01*
X174841904Y-115506666D01*
X174794285Y-115411428D01*
X174746666Y-115363809D01*
X174651428Y-115316190D01*
X174460952Y-115268571D01*
X174365714Y-115220952D01*
X174318095Y-115173333D01*
X174270476Y-115078095D01*
X174270476Y-114982857D01*
X174318095Y-114887619D01*
X174365714Y-114840000D01*
X174460952Y-114792380D01*
X174699047Y-114792380D01*
X174841904Y-114840000D01*
X175175238Y-114792380D02*
X175413333Y-115792380D01*
X175603809Y-115078095D01*
X175794285Y-115792380D01*
X176032380Y-114792380D01*
X176937142Y-115792380D02*
X176365714Y-115792380D01*
X176651428Y-115792380D02*
X176651428Y-114792380D01*
X176556190Y-114935238D01*
X176460952Y-115030476D01*
X176365714Y-115078095D01*
X177794285Y-115125714D02*
X177794285Y-115792380D01*
X177556190Y-114744761D02*
X177318095Y-115459047D01*
X177937142Y-115459047D01*
%TO.C,SW11*%
X114270476Y-115744761D02*
X114413333Y-115792380D01*
X114651428Y-115792380D01*
X114746666Y-115744761D01*
X114794285Y-115697142D01*
X114841904Y-115601904D01*
X114841904Y-115506666D01*
X114794285Y-115411428D01*
X114746666Y-115363809D01*
X114651428Y-115316190D01*
X114460952Y-115268571D01*
X114365714Y-115220952D01*
X114318095Y-115173333D01*
X114270476Y-115078095D01*
X114270476Y-114982857D01*
X114318095Y-114887619D01*
X114365714Y-114840000D01*
X114460952Y-114792380D01*
X114699047Y-114792380D01*
X114841904Y-114840000D01*
X115175238Y-114792380D02*
X115413333Y-115792380D01*
X115603809Y-115078095D01*
X115794285Y-115792380D01*
X116032380Y-114792380D01*
X116937142Y-115792380D02*
X116365714Y-115792380D01*
X116651428Y-115792380D02*
X116651428Y-114792380D01*
X116556190Y-114935238D01*
X116460952Y-115030476D01*
X116365714Y-115078095D01*
X117889523Y-115792380D02*
X117318095Y-115792380D01*
X117603809Y-115792380D02*
X117603809Y-114792380D01*
X117508571Y-114935238D01*
X117413333Y-115030476D01*
X117318095Y-115078095D01*
%TO.C,SW10*%
X94270476Y-115744761D02*
X94413333Y-115792380D01*
X94651428Y-115792380D01*
X94746666Y-115744761D01*
X94794285Y-115697142D01*
X94841904Y-115601904D01*
X94841904Y-115506666D01*
X94794285Y-115411428D01*
X94746666Y-115363809D01*
X94651428Y-115316190D01*
X94460952Y-115268571D01*
X94365714Y-115220952D01*
X94318095Y-115173333D01*
X94270476Y-115078095D01*
X94270476Y-114982857D01*
X94318095Y-114887619D01*
X94365714Y-114840000D01*
X94460952Y-114792380D01*
X94699047Y-114792380D01*
X94841904Y-114840000D01*
X95175238Y-114792380D02*
X95413333Y-115792380D01*
X95603809Y-115078095D01*
X95794285Y-115792380D01*
X96032380Y-114792380D01*
X96937142Y-115792380D02*
X96365714Y-115792380D01*
X96651428Y-115792380D02*
X96651428Y-114792380D01*
X96556190Y-114935238D01*
X96460952Y-115030476D01*
X96365714Y-115078095D01*
X97556190Y-114792380D02*
X97651428Y-114792380D01*
X97746666Y-114840000D01*
X97794285Y-114887619D01*
X97841904Y-114982857D01*
X97889523Y-115173333D01*
X97889523Y-115411428D01*
X97841904Y-115601904D01*
X97794285Y-115697142D01*
X97746666Y-115744761D01*
X97651428Y-115792380D01*
X97556190Y-115792380D01*
X97460952Y-115744761D01*
X97413333Y-115697142D01*
X97365714Y-115601904D01*
X97318095Y-115411428D01*
X97318095Y-115173333D01*
X97365714Y-114982857D01*
X97413333Y-114887619D01*
X97460952Y-114840000D01*
X97556190Y-114792380D01*
%TO.C,SW9*%
X74746666Y-115744761D02*
X74889523Y-115792380D01*
X75127619Y-115792380D01*
X75222857Y-115744761D01*
X75270476Y-115697142D01*
X75318095Y-115601904D01*
X75318095Y-115506666D01*
X75270476Y-115411428D01*
X75222857Y-115363809D01*
X75127619Y-115316190D01*
X74937142Y-115268571D01*
X74841904Y-115220952D01*
X74794285Y-115173333D01*
X74746666Y-115078095D01*
X74746666Y-114982857D01*
X74794285Y-114887619D01*
X74841904Y-114840000D01*
X74937142Y-114792380D01*
X75175238Y-114792380D01*
X75318095Y-114840000D01*
X75651428Y-114792380D02*
X75889523Y-115792380D01*
X76080000Y-115078095D01*
X76270476Y-115792380D01*
X76508571Y-114792380D01*
X76937142Y-115792380D02*
X77127619Y-115792380D01*
X77222857Y-115744761D01*
X77270476Y-115697142D01*
X77365714Y-115554285D01*
X77413333Y-115363809D01*
X77413333Y-114982857D01*
X77365714Y-114887619D01*
X77318095Y-114840000D01*
X77222857Y-114792380D01*
X77032380Y-114792380D01*
X76937142Y-114840000D01*
X76889523Y-114887619D01*
X76841904Y-114982857D01*
X76841904Y-115220952D01*
X76889523Y-115316190D01*
X76937142Y-115363809D01*
X77032380Y-115411428D01*
X77222857Y-115411428D01*
X77318095Y-115363809D01*
X77365714Y-115316190D01*
X77413333Y-115220952D01*
%TO.C,SW8*%
X204746666Y-112164761D02*
X204889523Y-112212380D01*
X205127619Y-112212380D01*
X205222857Y-112164761D01*
X205270476Y-112117142D01*
X205318095Y-112021904D01*
X205318095Y-111926666D01*
X205270476Y-111831428D01*
X205222857Y-111783809D01*
X205127619Y-111736190D01*
X204937142Y-111688571D01*
X204841904Y-111640952D01*
X204794285Y-111593333D01*
X204746666Y-111498095D01*
X204746666Y-111402857D01*
X204794285Y-111307619D01*
X204841904Y-111260000D01*
X204937142Y-111212380D01*
X205175238Y-111212380D01*
X205318095Y-111260000D01*
X205651428Y-111212380D02*
X205889523Y-112212380D01*
X206080000Y-111498095D01*
X206270476Y-112212380D01*
X206508571Y-111212380D01*
X207032380Y-111640952D02*
X206937142Y-111593333D01*
X206889523Y-111545714D01*
X206841904Y-111450476D01*
X206841904Y-111402857D01*
X206889523Y-111307619D01*
X206937142Y-111260000D01*
X207032380Y-111212380D01*
X207222857Y-111212380D01*
X207318095Y-111260000D01*
X207365714Y-111307619D01*
X207413333Y-111402857D01*
X207413333Y-111450476D01*
X207365714Y-111545714D01*
X207318095Y-111593333D01*
X207222857Y-111640952D01*
X207032380Y-111640952D01*
X206937142Y-111688571D01*
X206889523Y-111736190D01*
X206841904Y-111831428D01*
X206841904Y-112021904D01*
X206889523Y-112117142D01*
X206937142Y-112164761D01*
X207032380Y-112212380D01*
X207222857Y-112212380D01*
X207318095Y-112164761D01*
X207365714Y-112117142D01*
X207413333Y-112021904D01*
X207413333Y-111831428D01*
X207365714Y-111736190D01*
X207318095Y-111688571D01*
X207222857Y-111640952D01*
%TO.C,SW7*%
X184721666Y-112164761D02*
X184864523Y-112212380D01*
X185102619Y-112212380D01*
X185197857Y-112164761D01*
X185245476Y-112117142D01*
X185293095Y-112021904D01*
X185293095Y-111926666D01*
X185245476Y-111831428D01*
X185197857Y-111783809D01*
X185102619Y-111736190D01*
X184912142Y-111688571D01*
X184816904Y-111640952D01*
X184769285Y-111593333D01*
X184721666Y-111498095D01*
X184721666Y-111402857D01*
X184769285Y-111307619D01*
X184816904Y-111260000D01*
X184912142Y-111212380D01*
X185150238Y-111212380D01*
X185293095Y-111260000D01*
X185626428Y-111212380D02*
X185864523Y-112212380D01*
X186055000Y-111498095D01*
X186245476Y-112212380D01*
X186483571Y-111212380D01*
X186769285Y-111212380D02*
X187435952Y-111212380D01*
X187007380Y-112212380D01*
%TO.C,SW6*%
X164746666Y-112164761D02*
X164889523Y-112212380D01*
X165127619Y-112212380D01*
X165222857Y-112164761D01*
X165270476Y-112117142D01*
X165318095Y-112021904D01*
X165318095Y-111926666D01*
X165270476Y-111831428D01*
X165222857Y-111783809D01*
X165127619Y-111736190D01*
X164937142Y-111688571D01*
X164841904Y-111640952D01*
X164794285Y-111593333D01*
X164746666Y-111498095D01*
X164746666Y-111402857D01*
X164794285Y-111307619D01*
X164841904Y-111260000D01*
X164937142Y-111212380D01*
X165175238Y-111212380D01*
X165318095Y-111260000D01*
X165651428Y-111212380D02*
X165889523Y-112212380D01*
X166080000Y-111498095D01*
X166270476Y-112212380D01*
X166508571Y-111212380D01*
X167318095Y-111212380D02*
X167127619Y-111212380D01*
X167032380Y-111260000D01*
X166984761Y-111307619D01*
X166889523Y-111450476D01*
X166841904Y-111640952D01*
X166841904Y-112021904D01*
X166889523Y-112117142D01*
X166937142Y-112164761D01*
X167032380Y-112212380D01*
X167222857Y-112212380D01*
X167318095Y-112164761D01*
X167365714Y-112117142D01*
X167413333Y-112021904D01*
X167413333Y-111783809D01*
X167365714Y-111688571D01*
X167318095Y-111640952D01*
X167222857Y-111593333D01*
X167032380Y-111593333D01*
X166937142Y-111640952D01*
X166889523Y-111688571D01*
X166841904Y-111783809D01*
%TO.C,SW5*%
X144716666Y-112164761D02*
X144859523Y-112212380D01*
X145097619Y-112212380D01*
X145192857Y-112164761D01*
X145240476Y-112117142D01*
X145288095Y-112021904D01*
X145288095Y-111926666D01*
X145240476Y-111831428D01*
X145192857Y-111783809D01*
X145097619Y-111736190D01*
X144907142Y-111688571D01*
X144811904Y-111640952D01*
X144764285Y-111593333D01*
X144716666Y-111498095D01*
X144716666Y-111402857D01*
X144764285Y-111307619D01*
X144811904Y-111260000D01*
X144907142Y-111212380D01*
X145145238Y-111212380D01*
X145288095Y-111260000D01*
X145621428Y-111212380D02*
X145859523Y-112212380D01*
X146050000Y-111498095D01*
X146240476Y-112212380D01*
X146478571Y-111212380D01*
X147335714Y-111212380D02*
X146859523Y-111212380D01*
X146811904Y-111688571D01*
X146859523Y-111640952D01*
X146954761Y-111593333D01*
X147192857Y-111593333D01*
X147288095Y-111640952D01*
X147335714Y-111688571D01*
X147383333Y-111783809D01*
X147383333Y-112021904D01*
X147335714Y-112117142D01*
X147288095Y-112164761D01*
X147192857Y-112212380D01*
X146954761Y-112212380D01*
X146859523Y-112164761D01*
X146811904Y-112117142D01*
%TO.C,SW4*%
X124916666Y-112164761D02*
X125059523Y-112212380D01*
X125297619Y-112212380D01*
X125392857Y-112164761D01*
X125440476Y-112117142D01*
X125488095Y-112021904D01*
X125488095Y-111926666D01*
X125440476Y-111831428D01*
X125392857Y-111783809D01*
X125297619Y-111736190D01*
X125107142Y-111688571D01*
X125011904Y-111640952D01*
X124964285Y-111593333D01*
X124916666Y-111498095D01*
X124916666Y-111402857D01*
X124964285Y-111307619D01*
X125011904Y-111260000D01*
X125107142Y-111212380D01*
X125345238Y-111212380D01*
X125488095Y-111260000D01*
X125821428Y-111212380D02*
X126059523Y-112212380D01*
X126250000Y-111498095D01*
X126440476Y-112212380D01*
X126678571Y-111212380D01*
X127488095Y-111545714D02*
X127488095Y-112212380D01*
X127250000Y-111164761D02*
X127011904Y-111879047D01*
X127630952Y-111879047D01*
%TO.C,SW3*%
X105346666Y-112164761D02*
X105489523Y-112212380D01*
X105727619Y-112212380D01*
X105822857Y-112164761D01*
X105870476Y-112117142D01*
X105918095Y-112021904D01*
X105918095Y-111926666D01*
X105870476Y-111831428D01*
X105822857Y-111783809D01*
X105727619Y-111736190D01*
X105537142Y-111688571D01*
X105441904Y-111640952D01*
X105394285Y-111593333D01*
X105346666Y-111498095D01*
X105346666Y-111402857D01*
X105394285Y-111307619D01*
X105441904Y-111260000D01*
X105537142Y-111212380D01*
X105775238Y-111212380D01*
X105918095Y-111260000D01*
X106251428Y-111212380D02*
X106489523Y-112212380D01*
X106680000Y-111498095D01*
X106870476Y-112212380D01*
X107108571Y-111212380D01*
X107394285Y-111212380D02*
X108013333Y-111212380D01*
X107680000Y-111593333D01*
X107822857Y-111593333D01*
X107918095Y-111640952D01*
X107965714Y-111688571D01*
X108013333Y-111783809D01*
X108013333Y-112021904D01*
X107965714Y-112117142D01*
X107918095Y-112164761D01*
X107822857Y-112212380D01*
X107537142Y-112212380D01*
X107441904Y-112164761D01*
X107394285Y-112117142D01*
%TO.C,SW2*%
X84391666Y-112164761D02*
X84534523Y-112212380D01*
X84772619Y-112212380D01*
X84867857Y-112164761D01*
X84915476Y-112117142D01*
X84963095Y-112021904D01*
X84963095Y-111926666D01*
X84915476Y-111831428D01*
X84867857Y-111783809D01*
X84772619Y-111736190D01*
X84582142Y-111688571D01*
X84486904Y-111640952D01*
X84439285Y-111593333D01*
X84391666Y-111498095D01*
X84391666Y-111402857D01*
X84439285Y-111307619D01*
X84486904Y-111260000D01*
X84582142Y-111212380D01*
X84820238Y-111212380D01*
X84963095Y-111260000D01*
X85296428Y-111212380D02*
X85534523Y-112212380D01*
X85725000Y-111498095D01*
X85915476Y-112212380D01*
X86153571Y-111212380D01*
X86486904Y-111307619D02*
X86534523Y-111260000D01*
X86629761Y-111212380D01*
X86867857Y-111212380D01*
X86963095Y-111260000D01*
X87010714Y-111307619D01*
X87058333Y-111402857D01*
X87058333Y-111498095D01*
X87010714Y-111640952D01*
X86439285Y-112212380D01*
X87058333Y-112212380D01*
%TO.C,SW1*%
X64916666Y-112164761D02*
X65059523Y-112212380D01*
X65297619Y-112212380D01*
X65392857Y-112164761D01*
X65440476Y-112117142D01*
X65488095Y-112021904D01*
X65488095Y-111926666D01*
X65440476Y-111831428D01*
X65392857Y-111783809D01*
X65297619Y-111736190D01*
X65107142Y-111688571D01*
X65011904Y-111640952D01*
X64964285Y-111593333D01*
X64916666Y-111498095D01*
X64916666Y-111402857D01*
X64964285Y-111307619D01*
X65011904Y-111260000D01*
X65107142Y-111212380D01*
X65345238Y-111212380D01*
X65488095Y-111260000D01*
X65821428Y-111212380D02*
X66059523Y-112212380D01*
X66250000Y-111498095D01*
X66440476Y-112212380D01*
X66678571Y-111212380D01*
X67583333Y-112212380D02*
X67011904Y-112212380D01*
X67297619Y-112212380D02*
X67297619Y-111212380D01*
X67202380Y-111355238D01*
X67107142Y-111450476D01*
X67011904Y-111498095D01*
%TO.C,R7*%
X131262380Y-137326666D02*
X130786190Y-137660000D01*
X131262380Y-137898095D02*
X130262380Y-137898095D01*
X130262380Y-137517142D01*
X130310000Y-137421904D01*
X130357619Y-137374285D01*
X130452857Y-137326666D01*
X130595714Y-137326666D01*
X130690952Y-137374285D01*
X130738571Y-137421904D01*
X130786190Y-137517142D01*
X130786190Y-137898095D01*
X130262380Y-136993333D02*
X130262380Y-136326666D01*
X131262380Y-136755238D01*
%TO.C,R6*%
X128722380Y-137326666D02*
X128246190Y-137660000D01*
X128722380Y-137898095D02*
X127722380Y-137898095D01*
X127722380Y-137517142D01*
X127770000Y-137421904D01*
X127817619Y-137374285D01*
X127912857Y-137326666D01*
X128055714Y-137326666D01*
X128150952Y-137374285D01*
X128198571Y-137421904D01*
X128246190Y-137517142D01*
X128246190Y-137898095D01*
X127722380Y-136469523D02*
X127722380Y-136660000D01*
X127770000Y-136755238D01*
X127817619Y-136802857D01*
X127960476Y-136898095D01*
X128150952Y-136945714D01*
X128531904Y-136945714D01*
X128627142Y-136898095D01*
X128674761Y-136850476D01*
X128722380Y-136755238D01*
X128722380Y-136564761D01*
X128674761Y-136469523D01*
X128627142Y-136421904D01*
X128531904Y-136374285D01*
X128293809Y-136374285D01*
X128198571Y-136421904D01*
X128150952Y-136469523D01*
X128103333Y-136564761D01*
X128103333Y-136755238D01*
X128150952Y-136850476D01*
X128198571Y-136898095D01*
X128293809Y-136945714D01*
%TO.C,R5*%
X126182380Y-137326666D02*
X125706190Y-137660000D01*
X126182380Y-137898095D02*
X125182380Y-137898095D01*
X125182380Y-137517142D01*
X125230000Y-137421904D01*
X125277619Y-137374285D01*
X125372857Y-137326666D01*
X125515714Y-137326666D01*
X125610952Y-137374285D01*
X125658571Y-137421904D01*
X125706190Y-137517142D01*
X125706190Y-137898095D01*
X125182380Y-136421904D02*
X125182380Y-136898095D01*
X125658571Y-136945714D01*
X125610952Y-136898095D01*
X125563333Y-136802857D01*
X125563333Y-136564761D01*
X125610952Y-136469523D01*
X125658571Y-136421904D01*
X125753809Y-136374285D01*
X125991904Y-136374285D01*
X126087142Y-136421904D01*
X126134761Y-136469523D01*
X126182380Y-136564761D01*
X126182380Y-136802857D01*
X126134761Y-136898095D01*
X126087142Y-136945714D01*
%TO.C,JP3*%
X114686666Y-134222380D02*
X114686666Y-134936666D01*
X114639047Y-135079523D01*
X114543809Y-135174761D01*
X114400952Y-135222380D01*
X114305714Y-135222380D01*
X115162857Y-135222380D02*
X115162857Y-134222380D01*
X115543809Y-134222380D01*
X115639047Y-134270000D01*
X115686666Y-134317619D01*
X115734285Y-134412857D01*
X115734285Y-134555714D01*
X115686666Y-134650952D01*
X115639047Y-134698571D01*
X115543809Y-134746190D01*
X115162857Y-134746190D01*
X116067619Y-134222380D02*
X116686666Y-134222380D01*
X116353333Y-134603333D01*
X116496190Y-134603333D01*
X116591428Y-134650952D01*
X116639047Y-134698571D01*
X116686666Y-134793809D01*
X116686666Y-135031904D01*
X116639047Y-135127142D01*
X116591428Y-135174761D01*
X116496190Y-135222380D01*
X116210476Y-135222380D01*
X116115238Y-135174761D01*
X116067619Y-135127142D01*
%TO.C,JP2*%
X114526666Y-137922380D02*
X114526666Y-138636666D01*
X114479047Y-138779523D01*
X114383809Y-138874761D01*
X114240952Y-138922380D01*
X114145714Y-138922380D01*
X115002857Y-138922380D02*
X115002857Y-137922380D01*
X115383809Y-137922380D01*
X115479047Y-137970000D01*
X115526666Y-138017619D01*
X115574285Y-138112857D01*
X115574285Y-138255714D01*
X115526666Y-138350952D01*
X115479047Y-138398571D01*
X115383809Y-138446190D01*
X115002857Y-138446190D01*
X115955238Y-138017619D02*
X116002857Y-137970000D01*
X116098095Y-137922380D01*
X116336190Y-137922380D01*
X116431428Y-137970000D01*
X116479047Y-138017619D01*
X116526666Y-138112857D01*
X116526666Y-138208095D01*
X116479047Y-138350952D01*
X115907619Y-138922380D01*
X116526666Y-138922380D01*
%TO.C,JP1*%
X114506666Y-141842380D02*
X114506666Y-142556666D01*
X114459047Y-142699523D01*
X114363809Y-142794761D01*
X114220952Y-142842380D01*
X114125714Y-142842380D01*
X114982857Y-142842380D02*
X114982857Y-141842380D01*
X115363809Y-141842380D01*
X115459047Y-141890000D01*
X115506666Y-141937619D01*
X115554285Y-142032857D01*
X115554285Y-142175714D01*
X115506666Y-142270952D01*
X115459047Y-142318571D01*
X115363809Y-142366190D01*
X114982857Y-142366190D01*
X116506666Y-142842380D02*
X115935238Y-142842380D01*
X116220952Y-142842380D02*
X116220952Y-141842380D01*
X116125714Y-141985238D01*
X116030476Y-142080476D01*
X115935238Y-142128095D01*
%TO.C,C1*%
X150063333Y-140467142D02*
X150015714Y-140514761D01*
X149872857Y-140562380D01*
X149777619Y-140562380D01*
X149634761Y-140514761D01*
X149539523Y-140419523D01*
X149491904Y-140324285D01*
X149444285Y-140133809D01*
X149444285Y-139990952D01*
X149491904Y-139800476D01*
X149539523Y-139705238D01*
X149634761Y-139610000D01*
X149777619Y-139562380D01*
X149872857Y-139562380D01*
X150015714Y-139610000D01*
X150063333Y-139657619D01*
X151015714Y-140562380D02*
X150444285Y-140562380D01*
X150730000Y-140562380D02*
X150730000Y-139562380D01*
X150634761Y-139705238D01*
X150539523Y-139800476D01*
X150444285Y-139848095D01*
D11*
%TO.C,SW12*%
X142400000Y-116350000D02*
X142400000Y-119070000D01*
X130100000Y-119070000D02*
X130100000Y-116350000D01*
X130100000Y-124070000D02*
X130100000Y-120930000D01*
X130100000Y-116350000D02*
X142400000Y-116350000D01*
X142400000Y-125930000D02*
X142400000Y-128650000D01*
X142400000Y-120930000D02*
X142400000Y-124070000D01*
X142400000Y-128650000D02*
X130100000Y-128650000D01*
X130100000Y-128650000D02*
X130100000Y-125930000D01*
X140929050Y-122540000D02*
G75*
G03*
X140929050Y-122540000I-4579050J0D01*
G01*
%TO.C,SW13*%
X162400000Y-116350000D02*
X162400000Y-119070000D01*
X150100000Y-119070000D02*
X150100000Y-116350000D01*
X150100000Y-124070000D02*
X150100000Y-120930000D01*
X150100000Y-116350000D02*
X162400000Y-116350000D01*
X162400000Y-125930000D02*
X162400000Y-128650000D01*
X162400000Y-120930000D02*
X162400000Y-124070000D01*
X162400000Y-128650000D02*
X150100000Y-128650000D01*
X150100000Y-128650000D02*
X150100000Y-125930000D01*
X160929050Y-122540000D02*
G75*
G03*
X160929050Y-122540000I-4579050J0D01*
G01*
%TO.C,SW16*%
X222400000Y-116350000D02*
X222400000Y-119070000D01*
X210100000Y-119070000D02*
X210100000Y-116350000D01*
X210100000Y-124070000D02*
X210100000Y-120930000D01*
X210100000Y-116350000D02*
X222400000Y-116350000D01*
X222400000Y-125930000D02*
X222400000Y-128650000D01*
X222400000Y-120930000D02*
X222400000Y-124070000D01*
X222400000Y-128650000D02*
X210100000Y-128650000D01*
X210100000Y-128650000D02*
X210100000Y-125930000D01*
X220929050Y-122540000D02*
G75*
G03*
X220929050Y-122540000I-4579050J0D01*
G01*
%TO.C,SW15*%
X202400000Y-116350000D02*
X202400000Y-119070000D01*
X190100000Y-119070000D02*
X190100000Y-116350000D01*
X190100000Y-124070000D02*
X190100000Y-120930000D01*
X190100000Y-116350000D02*
X202400000Y-116350000D01*
X202400000Y-125930000D02*
X202400000Y-128650000D01*
X202400000Y-120930000D02*
X202400000Y-124070000D01*
X202400000Y-128650000D02*
X190100000Y-128650000D01*
X190100000Y-128650000D02*
X190100000Y-125930000D01*
X200929050Y-122540000D02*
G75*
G03*
X200929050Y-122540000I-4579050J0D01*
G01*
%TO.C,SW14*%
X182400000Y-116350000D02*
X182400000Y-119070000D01*
X170100000Y-119070000D02*
X170100000Y-116350000D01*
X170100000Y-124070000D02*
X170100000Y-120930000D01*
X170100000Y-116350000D02*
X182400000Y-116350000D01*
X182400000Y-125930000D02*
X182400000Y-128650000D01*
X182400000Y-120930000D02*
X182400000Y-124070000D01*
X182400000Y-128650000D02*
X170100000Y-128650000D01*
X170100000Y-128650000D02*
X170100000Y-125930000D01*
X180929050Y-122540000D02*
G75*
G03*
X180929050Y-122540000I-4579050J0D01*
G01*
%TO.C,SW11*%
X122400000Y-116350000D02*
X122400000Y-119070000D01*
X110100000Y-119070000D02*
X110100000Y-116350000D01*
X110100000Y-124070000D02*
X110100000Y-120930000D01*
X110100000Y-116350000D02*
X122400000Y-116350000D01*
X122400000Y-125930000D02*
X122400000Y-128650000D01*
X122400000Y-120930000D02*
X122400000Y-124070000D01*
X122400000Y-128650000D02*
X110100000Y-128650000D01*
X110100000Y-128650000D02*
X110100000Y-125930000D01*
X120929050Y-122540000D02*
G75*
G03*
X120929050Y-122540000I-4579050J0D01*
G01*
%TO.C,SW10*%
X102400000Y-116350000D02*
X102400000Y-119070000D01*
X90100000Y-119070000D02*
X90100000Y-116350000D01*
X90100000Y-124070000D02*
X90100000Y-120930000D01*
X90100000Y-116350000D02*
X102400000Y-116350000D01*
X102400000Y-125930000D02*
X102400000Y-128650000D01*
X102400000Y-120930000D02*
X102400000Y-124070000D01*
X102400000Y-128650000D02*
X90100000Y-128650000D01*
X90100000Y-128650000D02*
X90100000Y-125930000D01*
X100929050Y-122540000D02*
G75*
G03*
X100929050Y-122540000I-4579050J0D01*
G01*
%TO.C,SW9*%
X82400000Y-116350000D02*
X82400000Y-119070000D01*
X70100000Y-119070000D02*
X70100000Y-116350000D01*
X70100000Y-124070000D02*
X70100000Y-120930000D01*
X70100000Y-116350000D02*
X82400000Y-116350000D01*
X82400000Y-125930000D02*
X82400000Y-128650000D01*
X82400000Y-120930000D02*
X82400000Y-124070000D01*
X82400000Y-128650000D02*
X70100000Y-128650000D01*
X70100000Y-128650000D02*
X70100000Y-125930000D01*
X80929050Y-122540000D02*
G75*
G03*
X80929050Y-122540000I-4579050J0D01*
G01*
%TO.C,SW8*%
X212400000Y-96350000D02*
X212400000Y-99070000D01*
X200100000Y-99070000D02*
X200100000Y-96350000D01*
X200100000Y-104070000D02*
X200100000Y-100930000D01*
X200100000Y-96350000D02*
X212400000Y-96350000D01*
X212400000Y-105930000D02*
X212400000Y-108650000D01*
X212400000Y-100930000D02*
X212400000Y-104070000D01*
X212400000Y-108650000D02*
X200100000Y-108650000D01*
X200100000Y-108650000D02*
X200100000Y-105930000D01*
X210929050Y-102540000D02*
G75*
G03*
X210929050Y-102540000I-4579050J0D01*
G01*
%TO.C,SW7*%
X192400000Y-96350000D02*
X192400000Y-99070000D01*
X180100000Y-99070000D02*
X180100000Y-96350000D01*
X180100000Y-104070000D02*
X180100000Y-100930000D01*
X180100000Y-96350000D02*
X192400000Y-96350000D01*
X192400000Y-105930000D02*
X192400000Y-108650000D01*
X192400000Y-100930000D02*
X192400000Y-104070000D01*
X192400000Y-108650000D02*
X180100000Y-108650000D01*
X180100000Y-108650000D02*
X180100000Y-105930000D01*
X190929050Y-102540000D02*
G75*
G03*
X190929050Y-102540000I-4579050J0D01*
G01*
%TO.C,SW6*%
X172400000Y-96350000D02*
X172400000Y-99070000D01*
X160100000Y-99070000D02*
X160100000Y-96350000D01*
X160100000Y-104070000D02*
X160100000Y-100930000D01*
X160100000Y-96350000D02*
X172400000Y-96350000D01*
X172400000Y-105930000D02*
X172400000Y-108650000D01*
X172400000Y-100930000D02*
X172400000Y-104070000D01*
X172400000Y-108650000D02*
X160100000Y-108650000D01*
X160100000Y-108650000D02*
X160100000Y-105930000D01*
X170929050Y-102540000D02*
G75*
G03*
X170929050Y-102540000I-4579050J0D01*
G01*
%TO.C,SW5*%
X152400000Y-96350000D02*
X152400000Y-99070000D01*
X140100000Y-99070000D02*
X140100000Y-96350000D01*
X140100000Y-104070000D02*
X140100000Y-100930000D01*
X140100000Y-96350000D02*
X152400000Y-96350000D01*
X152400000Y-105930000D02*
X152400000Y-108650000D01*
X152400000Y-100930000D02*
X152400000Y-104070000D01*
X152400000Y-108650000D02*
X140100000Y-108650000D01*
X140100000Y-108650000D02*
X140100000Y-105930000D01*
X150929050Y-102540000D02*
G75*
G03*
X150929050Y-102540000I-4579050J0D01*
G01*
%TO.C,SW4*%
X132400000Y-96350000D02*
X132400000Y-99070000D01*
X120100000Y-99070000D02*
X120100000Y-96350000D01*
X120100000Y-104070000D02*
X120100000Y-100930000D01*
X120100000Y-96350000D02*
X132400000Y-96350000D01*
X132400000Y-105930000D02*
X132400000Y-108650000D01*
X132400000Y-100930000D02*
X132400000Y-104070000D01*
X132400000Y-108650000D02*
X120100000Y-108650000D01*
X120100000Y-108650000D02*
X120100000Y-105930000D01*
X130929050Y-102540000D02*
G75*
G03*
X130929050Y-102540000I-4579050J0D01*
G01*
%TO.C,SW3*%
X112400000Y-96350000D02*
X112400000Y-99070000D01*
X100100000Y-99070000D02*
X100100000Y-96350000D01*
X100100000Y-104070000D02*
X100100000Y-100930000D01*
X100100000Y-96350000D02*
X112400000Y-96350000D01*
X112400000Y-105930000D02*
X112400000Y-108650000D01*
X112400000Y-100930000D02*
X112400000Y-104070000D01*
X112400000Y-108650000D02*
X100100000Y-108650000D01*
X100100000Y-108650000D02*
X100100000Y-105930000D01*
X110929050Y-102540000D02*
G75*
G03*
X110929050Y-102540000I-4579050J0D01*
G01*
%TO.C,SW2*%
X92400000Y-96350000D02*
X92400000Y-99070000D01*
X80100000Y-99070000D02*
X80100000Y-96350000D01*
X80100000Y-104070000D02*
X80100000Y-100930000D01*
X80100000Y-96350000D02*
X92400000Y-96350000D01*
X92400000Y-105930000D02*
X92400000Y-108650000D01*
X92400000Y-100930000D02*
X92400000Y-104070000D01*
X92400000Y-108650000D02*
X80100000Y-108650000D01*
X80100000Y-108650000D02*
X80100000Y-105930000D01*
X90929050Y-102540000D02*
G75*
G03*
X90929050Y-102540000I-4579050J0D01*
G01*
%TO.C,SW1*%
X70929050Y-102540000D02*
G75*
G03*
X70929050Y-102540000I-4579050J0D01*
G01*
X60100000Y-108650000D02*
X60100000Y-105930000D01*
X72400000Y-108650000D02*
X60100000Y-108650000D01*
X72400000Y-100930000D02*
X72400000Y-104070000D01*
X72400000Y-105930000D02*
X72400000Y-108650000D01*
X60100000Y-96350000D02*
X72400000Y-96350000D01*
X60100000Y-104070000D02*
X60100000Y-100930000D01*
X60100000Y-99070000D02*
X60100000Y-96350000D01*
X72400000Y-96350000D02*
X72400000Y-99070000D01*
%TO.C,R7*%
X131545000Y-133122936D02*
X131545000Y-133577064D01*
X130075000Y-133122936D02*
X130075000Y-133577064D01*
%TO.C,R6*%
X129005000Y-133122936D02*
X129005000Y-133577064D01*
X127535000Y-133122936D02*
X127535000Y-133577064D01*
%TO.C,R5*%
X126465000Y-133122936D02*
X126465000Y-133577064D01*
X124995000Y-133122936D02*
X124995000Y-133577064D01*
%TO.C,JP3*%
X117750000Y-135770000D02*
X117750000Y-133770000D01*
X120550000Y-135770000D02*
X117750000Y-135770000D01*
X120550000Y-133770000D02*
X120550000Y-135770000D01*
X117750000Y-133770000D02*
X120550000Y-133770000D01*
%TO.C,JP2*%
X117750000Y-139580000D02*
X117750000Y-137580000D01*
X120550000Y-139580000D02*
X117750000Y-139580000D01*
X120550000Y-137580000D02*
X120550000Y-139580000D01*
X117750000Y-137580000D02*
X120550000Y-137580000D01*
%TO.C,JP1*%
X117750000Y-143390000D02*
X117750000Y-141390000D01*
X120550000Y-143390000D02*
X117750000Y-143390000D01*
X120550000Y-141390000D02*
X120550000Y-143390000D01*
X117750000Y-141390000D02*
X120550000Y-141390000D01*
%TO.C,C1*%
X150491252Y-139165000D02*
X149968748Y-139165000D01*
X150491252Y-137695000D02*
X149968748Y-137695000D01*
%TD*%
M02*
