%TF.GenerationSoftware,KiCad,Pcbnew,(6.0.9)*%
%TF.CreationDate,2023-03-19T20:52:38+01:00*%
%TF.ProjectId,PI-keys,50492d6b-6579-4732-9e6b-696361645f70,rev?*%
%TF.SameCoordinates,Original*%
%TF.FileFunction,Soldermask,Top*%
%TF.FilePolarity,Negative*%
%FSLAX46Y46*%
G04 Gerber Fmt 4.6, Leading zero omitted, Abs format (unit mm)*
G04 Created by KiCad (PCBNEW (6.0.9)) date 2023-03-19 20:52:38*
%MOMM*%
%LPD*%
G01*
G04 APERTURE LIST*
G04 Aperture macros list*
%AMRoundRect*
0 Rectangle with rounded corners*
0 $1 Rounding radius*
0 $2 $3 $4 $5 $6 $7 $8 $9 X,Y pos of 4 corners*
0 Add a 4 corners polygon primitive as box body*
4,1,4,$2,$3,$4,$5,$6,$7,$8,$9,$2,$3,0*
0 Add four circle primitives for the rounded corners*
1,1,$1+$1,$2,$3*
1,1,$1+$1,$4,$5*
1,1,$1+$1,$6,$7*
1,1,$1+$1,$8,$9*
0 Add four rect primitives between the rounded corners*
20,1,$1+$1,$2,$3,$4,$5,0*
20,1,$1+$1,$4,$5,$6,$7,0*
20,1,$1+$1,$6,$7,$8,$9,0*
20,1,$1+$1,$8,$9,$2,$3,0*%
%AMFreePoly0*
4,1,6,1.000000,0.000000,0.500000,-0.750000,-0.500000,-0.750000,-0.500000,0.750000,0.500000,0.750000,1.000000,0.000000,1.000000,0.000000,$1*%
%AMFreePoly1*
4,1,6,0.500000,-0.750000,-0.650000,-0.750000,-0.150000,0.000000,-0.650000,0.750000,0.500000,0.750000,0.500000,-0.750000,0.500000,-0.750000,$1*%
G04 Aperture macros list end*
%ADD10O,3.048000X1.850000*%
%ADD11RoundRect,0.250000X0.600000X0.725000X-0.600000X0.725000X-0.600000X-0.725000X0.600000X-0.725000X0*%
%ADD12O,1.700000X1.950000*%
%ADD13C,3.200000*%
%ADD14R,1.600000X1.600000*%
%ADD15O,1.600000X1.600000*%
%ADD16RoundRect,0.250000X-0.450000X0.350000X-0.450000X-0.350000X0.450000X-0.350000X0.450000X0.350000X0*%
%ADD17FreePoly0,0.000000*%
%ADD18FreePoly1,0.000000*%
%ADD19RoundRect,0.250000X0.337500X0.475000X-0.337500X0.475000X-0.337500X-0.475000X0.337500X-0.475000X0*%
G04 APERTURE END LIST*
D10*
%TO.C,SW12*%
X130000000Y-120000000D03*
X142500000Y-120000000D03*
X130000000Y-125000000D03*
X142500000Y-125000000D03*
%TD*%
%TO.C,SW13*%
X150000000Y-120000000D03*
X162500000Y-120000000D03*
X150000000Y-125000000D03*
X162500000Y-125000000D03*
%TD*%
D11*
%TO.C,J2*%
X66675000Y-139700000D03*
D12*
X64175000Y-139700000D03*
X61675000Y-139700000D03*
X59175000Y-139700000D03*
%TD*%
D13*
%TO.C,REF\u002A\u002A*%
X221240000Y-102860000D03*
%TD*%
%TO.C,REF\u002A\u002A*%
X221200000Y-143400000D03*
%TD*%
%TO.C,REF\u002A\u002A*%
X51200000Y-142900000D03*
%TD*%
%TO.C,REF\u002A\u002A*%
X51220000Y-102930000D03*
%TD*%
D14*
%TO.C,U1*%
X171820000Y-142240000D03*
D15*
X169280000Y-142240000D03*
X166740000Y-142240000D03*
X164200000Y-142240000D03*
X161660000Y-142240000D03*
X159120000Y-142240000D03*
X156580000Y-142240000D03*
X154040000Y-142240000D03*
X151500000Y-142240000D03*
X148960000Y-142240000D03*
X146420000Y-142240000D03*
X143880000Y-142240000D03*
X141340000Y-142240000D03*
X138800000Y-142240000D03*
X138800000Y-134620000D03*
X141340000Y-134620000D03*
X143880000Y-134620000D03*
X146420000Y-134620000D03*
X148960000Y-134620000D03*
X151500000Y-134620000D03*
X154040000Y-134620000D03*
X156580000Y-134620000D03*
X159120000Y-134620000D03*
X161660000Y-134620000D03*
X164200000Y-134620000D03*
X166740000Y-134620000D03*
X169280000Y-134620000D03*
X171820000Y-134620000D03*
%TD*%
D10*
%TO.C,SW16*%
X210000000Y-120000000D03*
X222500000Y-120000000D03*
X210000000Y-125000000D03*
X222500000Y-125000000D03*
%TD*%
%TO.C,SW15*%
X190000000Y-120000000D03*
X202500000Y-120000000D03*
X190000000Y-125000000D03*
X202500000Y-125000000D03*
%TD*%
%TO.C,SW14*%
X170000000Y-120000000D03*
X182500000Y-120000000D03*
X170000000Y-125000000D03*
X182500000Y-125000000D03*
%TD*%
%TO.C,SW11*%
X110000000Y-120000000D03*
X122500000Y-120000000D03*
X110000000Y-125000000D03*
X122500000Y-125000000D03*
%TD*%
%TO.C,SW10*%
X90000000Y-120000000D03*
X102500000Y-120000000D03*
X90000000Y-125000000D03*
X102500000Y-125000000D03*
%TD*%
%TO.C,SW9*%
X70000000Y-120000000D03*
X82500000Y-120000000D03*
X70000000Y-125000000D03*
X82500000Y-125000000D03*
%TD*%
%TO.C,SW8*%
X200000000Y-100000000D03*
X212500000Y-100000000D03*
X200000000Y-105000000D03*
X212500000Y-105000000D03*
%TD*%
%TO.C,SW7*%
X180000000Y-100000000D03*
X192500000Y-100000000D03*
X180000000Y-105000000D03*
X192500000Y-105000000D03*
%TD*%
%TO.C,SW6*%
X160000000Y-100000000D03*
X172500000Y-100000000D03*
X160000000Y-105000000D03*
X172500000Y-105000000D03*
%TD*%
%TO.C,SW5*%
X140000000Y-100000000D03*
X152500000Y-100000000D03*
X140000000Y-105000000D03*
X152500000Y-105000000D03*
%TD*%
%TO.C,SW4*%
X120000000Y-100000000D03*
X132500000Y-100000000D03*
X120000000Y-105000000D03*
X132500000Y-105000000D03*
%TD*%
%TO.C,SW3*%
X100000000Y-100000000D03*
X112500000Y-100000000D03*
X100000000Y-105000000D03*
X112500000Y-105000000D03*
%TD*%
%TO.C,SW2*%
X80000000Y-100000000D03*
X92500000Y-100000000D03*
X80000000Y-105000000D03*
X92500000Y-105000000D03*
%TD*%
%TO.C,SW1*%
X72500000Y-105000000D03*
X60000000Y-105000000D03*
X72500000Y-100000000D03*
X60000000Y-100000000D03*
%TD*%
D16*
%TO.C,R7*%
X130810000Y-132350000D03*
X130810000Y-134350000D03*
%TD*%
%TO.C,R6*%
X128270000Y-132350000D03*
X128270000Y-134350000D03*
%TD*%
%TO.C,R5*%
X125730000Y-132350000D03*
X125730000Y-134350000D03*
%TD*%
D17*
%TO.C,JP3*%
X118425000Y-134770000D03*
D18*
X119875000Y-134770000D03*
%TD*%
D17*
%TO.C,JP2*%
X118425000Y-138580000D03*
D18*
X119875000Y-138580000D03*
%TD*%
D17*
%TO.C,JP1*%
X118425000Y-142390000D03*
D18*
X119875000Y-142390000D03*
%TD*%
D11*
%TO.C,J1*%
X80890000Y-139810000D03*
D12*
X78390000Y-139810000D03*
X75890000Y-139810000D03*
X73390000Y-139810000D03*
%TD*%
D19*
%TO.C,C1*%
X151267500Y-138430000D03*
X149192500Y-138430000D03*
%TD*%
M02*
