%TF.GenerationSoftware,KiCad,Pcbnew,(6.0.9)*%
%TF.CreationDate,2023-03-19T20:52:38+01:00*%
%TF.ProjectId,PI-keys,50492d6b-6579-4732-9e6b-696361645f70,rev?*%
%TF.SameCoordinates,Original*%
%TF.FileFunction,Legend,Bot*%
%TF.FilePolarity,Positive*%
%FSLAX46Y46*%
G04 Gerber Fmt 4.6, Leading zero omitted, Abs format (unit mm)*
G04 Created by KiCad (PCBNEW (6.0.9)) date 2023-03-19 20:52:38*
%MOMM*%
%LPD*%
G01*
G04 APERTURE LIST*
%ADD10C,0.150000*%
%ADD11C,0.120000*%
G04 APERTURE END LIST*
D10*
%TO.C,J2*%
X63258333Y-135602380D02*
X63258333Y-136316666D01*
X63305952Y-136459523D01*
X63401190Y-136554761D01*
X63544047Y-136602380D01*
X63639285Y-136602380D01*
X62829761Y-135697619D02*
X62782142Y-135650000D01*
X62686904Y-135602380D01*
X62448809Y-135602380D01*
X62353571Y-135650000D01*
X62305952Y-135697619D01*
X62258333Y-135792857D01*
X62258333Y-135888095D01*
X62305952Y-136030952D01*
X62877380Y-136602380D01*
X62258333Y-136602380D01*
%TO.C,U1*%
X173602380Y-137668095D02*
X174411904Y-137668095D01*
X174507142Y-137715714D01*
X174554761Y-137763333D01*
X174602380Y-137858571D01*
X174602380Y-138049047D01*
X174554761Y-138144285D01*
X174507142Y-138191904D01*
X174411904Y-138239523D01*
X173602380Y-138239523D01*
X174602380Y-139239523D02*
X174602380Y-138668095D01*
X174602380Y-138953809D02*
X173602380Y-138953809D01*
X173745238Y-138858571D01*
X173840476Y-138763333D01*
X173888095Y-138668095D01*
%TO.C,R4*%
X103116666Y-136852380D02*
X103450000Y-136376190D01*
X103688095Y-136852380D02*
X103688095Y-135852380D01*
X103307142Y-135852380D01*
X103211904Y-135900000D01*
X103164285Y-135947619D01*
X103116666Y-136042857D01*
X103116666Y-136185714D01*
X103164285Y-136280952D01*
X103211904Y-136328571D01*
X103307142Y-136376190D01*
X103688095Y-136376190D01*
X102259523Y-136185714D02*
X102259523Y-136852380D01*
X102497619Y-135804761D02*
X102735714Y-136519047D01*
X102116666Y-136519047D01*
%TO.C,R3*%
X103036666Y-141042380D02*
X103370000Y-140566190D01*
X103608095Y-141042380D02*
X103608095Y-140042380D01*
X103227142Y-140042380D01*
X103131904Y-140090000D01*
X103084285Y-140137619D01*
X103036666Y-140232857D01*
X103036666Y-140375714D01*
X103084285Y-140470952D01*
X103131904Y-140518571D01*
X103227142Y-140566190D01*
X103608095Y-140566190D01*
X102703333Y-140042380D02*
X102084285Y-140042380D01*
X102417619Y-140423333D01*
X102274761Y-140423333D01*
X102179523Y-140470952D01*
X102131904Y-140518571D01*
X102084285Y-140613809D01*
X102084285Y-140851904D01*
X102131904Y-140947142D01*
X102179523Y-140994761D01*
X102274761Y-141042380D01*
X102560476Y-141042380D01*
X102655714Y-140994761D01*
X102703333Y-140947142D01*
%TO.C,R2*%
X94432380Y-136993333D02*
X93956190Y-136660000D01*
X94432380Y-136421904D02*
X93432380Y-136421904D01*
X93432380Y-136802857D01*
X93480000Y-136898095D01*
X93527619Y-136945714D01*
X93622857Y-136993333D01*
X93765714Y-136993333D01*
X93860952Y-136945714D01*
X93908571Y-136898095D01*
X93956190Y-136802857D01*
X93956190Y-136421904D01*
X93527619Y-137374285D02*
X93480000Y-137421904D01*
X93432380Y-137517142D01*
X93432380Y-137755238D01*
X93480000Y-137850476D01*
X93527619Y-137898095D01*
X93622857Y-137945714D01*
X93718095Y-137945714D01*
X93860952Y-137898095D01*
X94432380Y-137326666D01*
X94432380Y-137945714D01*
%TO.C,R1*%
X94432380Y-142073333D02*
X93956190Y-141740000D01*
X94432380Y-141501904D02*
X93432380Y-141501904D01*
X93432380Y-141882857D01*
X93480000Y-141978095D01*
X93527619Y-142025714D01*
X93622857Y-142073333D01*
X93765714Y-142073333D01*
X93860952Y-142025714D01*
X93908571Y-141978095D01*
X93956190Y-141882857D01*
X93956190Y-141501904D01*
X94432380Y-143025714D02*
X94432380Y-142454285D01*
X94432380Y-142740000D02*
X93432380Y-142740000D01*
X93575238Y-142644761D01*
X93670476Y-142549523D01*
X93718095Y-142454285D01*
%TO.C,J1*%
X77473333Y-135712380D02*
X77473333Y-136426666D01*
X77520952Y-136569523D01*
X77616190Y-136664761D01*
X77759047Y-136712380D01*
X77854285Y-136712380D01*
X76473333Y-136712380D02*
X77044761Y-136712380D01*
X76759047Y-136712380D02*
X76759047Y-135712380D01*
X76854285Y-135855238D01*
X76949523Y-135950476D01*
X77044761Y-135998095D01*
%TO.C,D2*%
X86889404Y-137487380D02*
X86889404Y-136487380D01*
X86651309Y-136487380D01*
X86508452Y-136535000D01*
X86413214Y-136630238D01*
X86365595Y-136725476D01*
X86317976Y-136915952D01*
X86317976Y-137058809D01*
X86365595Y-137249285D01*
X86413214Y-137344523D01*
X86508452Y-137439761D01*
X86651309Y-137487380D01*
X86889404Y-137487380D01*
X85937023Y-136582619D02*
X85889404Y-136535000D01*
X85794166Y-136487380D01*
X85556071Y-136487380D01*
X85460833Y-136535000D01*
X85413214Y-136582619D01*
X85365595Y-136677857D01*
X85365595Y-136773095D01*
X85413214Y-136915952D01*
X85984642Y-137487380D01*
X85365595Y-137487380D01*
%TO.C,D1*%
X86889404Y-143787380D02*
X86889404Y-142787380D01*
X86651309Y-142787380D01*
X86508452Y-142835000D01*
X86413214Y-142930238D01*
X86365595Y-143025476D01*
X86317976Y-143215952D01*
X86317976Y-143358809D01*
X86365595Y-143549285D01*
X86413214Y-143644523D01*
X86508452Y-143739761D01*
X86651309Y-143787380D01*
X86889404Y-143787380D01*
X85365595Y-143787380D02*
X85937023Y-143787380D01*
X85651309Y-143787380D02*
X85651309Y-142787380D01*
X85746547Y-142930238D01*
X85841785Y-143025476D01*
X85937023Y-143073095D01*
D11*
%TO.C,J2*%
X56615000Y-137240000D02*
X69235000Y-137240000D01*
X56625000Y-139500000D02*
X57375000Y-139500000D01*
X57375000Y-142450000D02*
X62925000Y-142450000D01*
X69225000Y-139500000D02*
X68475000Y-139500000D01*
X69235000Y-143210000D02*
X56615000Y-143210000D01*
X69235000Y-137240000D02*
X69235000Y-143210000D01*
X56615000Y-143210000D02*
X56615000Y-137240000D01*
X58425000Y-138000000D02*
X56625000Y-138000000D01*
X59925000Y-138000000D02*
X59925000Y-137250000D01*
X68275000Y-136950000D02*
X69525000Y-136950000D01*
X57375000Y-139500000D02*
X57375000Y-142450000D01*
X67425000Y-138000000D02*
X67425000Y-137250000D01*
X69525000Y-136950000D02*
X69525000Y-138200000D01*
X69225000Y-137250000D02*
X69225000Y-138000000D01*
X56625000Y-137250000D02*
X58425000Y-137250000D01*
X69225000Y-138000000D02*
X67425000Y-138000000D01*
X58425000Y-137250000D02*
X58425000Y-138000000D01*
X68475000Y-139500000D02*
X68475000Y-142450000D01*
X59925000Y-137250000D02*
X65925000Y-137250000D01*
X67425000Y-137250000D02*
X69225000Y-137250000D01*
X56625000Y-138000000D02*
X56625000Y-137250000D01*
X68475000Y-142450000D02*
X62925000Y-142450000D01*
X65925000Y-138000000D02*
X59925000Y-138000000D01*
X65925000Y-137250000D02*
X65925000Y-138000000D01*
%TO.C,U1*%
X173150000Y-135780000D02*
X173150000Y-137430000D01*
X137470000Y-135780000D02*
X173150000Y-135780000D01*
X173150000Y-139430000D02*
X173150000Y-141080000D01*
X173150000Y-141080000D02*
X137470000Y-141080000D01*
X137470000Y-141080000D02*
X137470000Y-135780000D01*
X173150000Y-137430000D02*
G75*
G03*
X173150000Y-139430000I0J-1000000D01*
G01*
%TO.C,R4*%
X103097064Y-137695000D02*
X102642936Y-137695000D01*
X103097064Y-139165000D02*
X102642936Y-139165000D01*
%TO.C,R3*%
X103097064Y-141505000D02*
X102642936Y-141505000D01*
X103097064Y-142975000D02*
X102642936Y-142975000D01*
%TO.C,R2*%
X97255000Y-137387064D02*
X97255000Y-136932936D01*
X95785000Y-137387064D02*
X95785000Y-136932936D01*
%TO.C,R1*%
X95785000Y-142012936D02*
X95785000Y-142467064D01*
X97255000Y-142012936D02*
X97255000Y-142467064D01*
%TO.C,J1*%
X70830000Y-137350000D02*
X83450000Y-137350000D01*
X70840000Y-139610000D02*
X71590000Y-139610000D01*
X71590000Y-142560000D02*
X77140000Y-142560000D01*
X83440000Y-139610000D02*
X82690000Y-139610000D01*
X83450000Y-143320000D02*
X70830000Y-143320000D01*
X83450000Y-137350000D02*
X83450000Y-143320000D01*
X70830000Y-143320000D02*
X70830000Y-137350000D01*
X72640000Y-138110000D02*
X70840000Y-138110000D01*
X74140000Y-138110000D02*
X74140000Y-137360000D01*
X82490000Y-137060000D02*
X83740000Y-137060000D01*
X71590000Y-139610000D02*
X71590000Y-142560000D01*
X81640000Y-138110000D02*
X81640000Y-137360000D01*
X83740000Y-137060000D02*
X83740000Y-138310000D01*
X83440000Y-137360000D02*
X83440000Y-138110000D01*
X70840000Y-137360000D02*
X72640000Y-137360000D01*
X83440000Y-138110000D02*
X81640000Y-138110000D01*
X72640000Y-137360000D02*
X72640000Y-138110000D01*
X82690000Y-139610000D02*
X82690000Y-142560000D01*
X74140000Y-137360000D02*
X80140000Y-137360000D01*
X81640000Y-137360000D02*
X83440000Y-137360000D01*
X70840000Y-138110000D02*
X70840000Y-137360000D01*
X82690000Y-142560000D02*
X77140000Y-142560000D01*
X80140000Y-138110000D02*
X74140000Y-138110000D01*
X80140000Y-137360000D02*
X80140000Y-138110000D01*
D10*
%TO.C,D2*%
X89325000Y-137835000D02*
X88475000Y-137835000D01*
X89325000Y-136485000D02*
X88475000Y-136485000D01*
%TO.C,D1*%
X89325000Y-142785000D02*
X88475000Y-142785000D01*
X89325000Y-144135000D02*
X88475000Y-144135000D01*
%TD*%
M02*
